<?xml version="1.0" encoding="UTF-8"?>
<svg version="1.1" xmlns="http://www.w3.org/2000/svg" width="221" height="221">
<path d="M0 0 C0.74378906 0.65226562 1.48757812 1.30453125 2.25390625 1.9765625 C2.98738281 2.56695313 3.72085938 3.15734375 4.4765625 3.765625 C25.42964846 21.13414422 37.69063868 48.19872323 40.25390625 74.9765625 C42.53367959 107.17157587 31.50851378 135.36285818 10.50390625 159.6015625 C-8.33483124 179.74251687 -35.04433275 190.91449922 -62.4453125 192.26171875 C-89.33462638 193.02951478 -116.44630719 185.02485216 -136.74609375 166.9765625 C-137.47699219 166.38746094 -138.20789063 165.79835937 -138.9609375 165.19140625 C-159.35759157 148.30770841 -171.48378462 122.07120642 -174.54760742 96.10107422 C-177.12136434 68.55269455 -169.87857391 40.51202518 -152.74609375 18.6015625 C-151.42496179 17.04942712 -150.09162525 15.50759446 -148.74609375 13.9765625 C-148.07191406 13.15929688 -147.39773437 12.34203125 -146.703125 11.5 C-130.09037376 -8.04797323 -105.4157432 -19.63721023 -80.1328125 -22.77734375 C-51.78801809 -24.83700009 -22.12508103 -18.88104115 0 0 Z " fill="#FDFDFD" transform="translate(177.74609375,26.0234375)"/>
<path d="M0 0 C1.05013275 -0.00191345 2.1002655 -0.0038269 3.18222046 -0.00579834 C5.38889813 -0.0071491 7.59558405 -0.00353092 9.80224609 0.00488281 C13.11965507 0.0155326 16.4365145 0.00498266 19.75390625 -0.0078125 C55.0700227 -0.0323951 55.0700227 -0.0323951 65.5234375 6.265625 C66.23886719 6.67167969 66.95429688 7.07773438 67.69140625 7.49609375 C72.42889892 10.30062038 76.71579565 12.84269944 78.5234375 18.265625 C79.43988717 25.9916437 78.77514571 31.24618546 74.2265625 37.62109375 C72.3280711 39.45427008 71.1032086 39.88987573 68.5234375 40.265625 C68.5234375 40.925625 68.5234375 41.585625 68.5234375 42.265625 C66.1740807 43.07447057 63.8203853 43.8621603 61.4609375 44.640625 C60.82349609 44.86234375 60.18605469 45.0840625 59.52929688 45.3125 C47.2011929 49.32355775 34.24316492 49.61544963 21.3984375 49.515625 C20.68343079 49.51252319 19.96842407 49.50942139 19.23175049 49.50622559 C1.91860572 49.41857385 -14.92877025 48.74084777 -31.4765625 43.265625 C-32.36988281 42.99105469 -33.26320313 42.71648437 -34.18359375 42.43359375 C-39.43260828 40.52723524 -42.58526767 37.78495704 -45.4375 32.96484375 C-47.64640835 27.22666455 -47.85504668 20.82828274 -45.62109375 15.0546875 C-40.66699516 7.31073816 -32.00445786 4.3005663 -23.4765625 2.265625 C-15.60830481 0.66466136 -8.01994004 -0.03329116 0 0 Z " fill="#F6BD9E" transform="translate(90.4765625,97.734375)"/>
<path d="M0 0 C0.74378906 0.65226562 1.48757812 1.30453125 2.25390625 1.9765625 C2.98738281 2.56695313 3.72085938 3.15734375 4.4765625 3.765625 C25.42964846 21.13414422 37.69063868 48.19872323 40.25390625 74.9765625 C42.53367959 107.17157587 31.50851378 135.36285818 10.50390625 159.6015625 C-8.33483124 179.74251687 -35.04433275 190.91449922 -62.4453125 192.26171875 C-89.33462638 193.02951478 -116.44630719 185.02485216 -136.74609375 166.9765625 C-137.47699219 166.38746094 -138.20789063 165.79835937 -138.9609375 165.19140625 C-159.35759157 148.30770841 -171.48378462 122.07120642 -174.54760742 96.10107422 C-177.12136434 68.55269455 -169.87857391 40.51202518 -152.74609375 18.6015625 C-151.42496179 17.04942712 -150.09162525 15.50759446 -148.74609375 13.9765625 C-148.07191406 13.15929688 -147.39773437 12.34203125 -146.703125 11.5 C-130.09037376 -8.04797323 -105.4157432 -19.63721023 -80.1328125 -22.77734375 C-51.78801809 -24.83700009 -22.12508103 -18.88104115 0 0 Z M-147.1796875 14.57421875 C-165.20391479 36.18221053 -173.64775004 63.03206017 -171.74609375 90.9765625 C-168.54376234 118.59992536 -154.87678636 143.77322937 -133.09423828 161.30615234 C-111.36882972 177.8238799 -85.01116637 184.33335998 -58.05859375 181.1640625 C-36.49516314 177.94398275 -19.1125913 169.26278548 -2.74609375 154.9765625 C-2.05902344 154.38617188 -1.37195313 153.79578125 -0.6640625 153.1875 C10.08765505 143.24599334 18.1135089 129.59575784 23.25390625 115.9765625 C23.50930176 115.31479004 23.76469727 114.65301758 24.02783203 113.97119141 C31.09921961 94.75280194 31.37657933 69.19610331 24.25390625 49.9765625 C23.89167969 48.94660156 23.52945313 47.91664062 23.15625 46.85546875 C18.5412484 34.82517644 11.84491042 23.57191068 3.25390625 13.9765625 C2.4546875 13.08324219 1.65546875 12.18992187 0.83203125 11.26953125 C-17.33422781 -7.94478122 -42.76088971 -18.399275 -69.04858398 -19.35742188 C-99.09021926 -19.90263034 -126.79302386 -7.18682671 -147.1796875 14.57421875 Z " fill="#020202" transform="translate(177.74609375,26.0234375)"/>
<path d="M0 0 C8.66661515 -0.09037863 17.3329172 -0.16376014 25.999897 -0.20724869 C30.02436077 -0.22812133 34.04848535 -0.25643235 38.07275391 -0.30175781 C41.95663536 -0.3452282 45.84019062 -0.36913954 49.72429657 -0.37950897 C51.20590093 -0.38689831 52.68748749 -0.40132818 54.16895294 -0.42292023 C56.24486321 -0.45197212 58.31942687 -0.45595556 60.39550781 -0.45410156 C61.57687317 -0.46298401 62.75823853 -0.47186646 63.97540283 -0.48101807 C67.61708677 0.09813865 68.78634853 1.10812697 71 4 C71.50755847 6.78142043 71.19028514 9.1457229 71 12 C69.35 12.33 67.7 12.66 66 13 C67.65 13.33 69.3 13.66 71 14 C72.44681324 11.10637351 72.43242376 8.1916991 72.71875 4.99609375 C73 3 73 3 74 2 C75.47652664 1.90119203 76.95767236 1.86920755 78.4375 1.8671875 C79.33210938 1.86589844 80.22671875 1.86460938 81.1484375 1.86328125 C82.08945313 1.86714844 83.03046875 1.87101562 84 1.875 C85.41152344 1.86919922 85.41152344 1.86919922 86.8515625 1.86328125 C88.19347656 1.86521484 88.19347656 1.86521484 89.5625 1.8671875 C90.38878906 1.86831543 91.21507813 1.86944336 92.06640625 1.87060547 C94 2 94 2 95 3 C98.00331018 3.14193337 100.99217134 3.04236378 104 3 C104.495 8.445 104.495 8.445 105 14 C105.66 10.37 106.32 6.74 107 3 C109.31 3 111.62 3 114 3 C114.495 3.99 114.495 3.99 115 5 C115.33 4.01 115.66 3.02 116 2 C118.31 2 120.62 2 123 2 C123.495 3.98 123.495 3.98 124 6 C124.556875 5.34 125.11375 4.68 125.6875 4 C128 2 128 2 130.5625 1.625 C133 2 133 2 136 4 C136.6875 6.125 136.6875 6.125 137 8 C137.33 6.35 137.66 4.7 138 3 C139.65 3 141.3 3 143 3 C143.18451025 13.55808656 143.18451025 13.55808656 142 18 C142.99 18 143.98 18 145 18 C144.67 19.65 144.34 21.3 144 23 C141.36 23 138.72 23 136 23 C135.67 22.34 135.34 21.68 135 21 C134.45249462 21.650079 133.90498924 22.300158 133.34089279 22.96993637 C130.48645097 25.4453588 129.27046276 25.49528913 125.54571533 25.48101807 C124.43796249 25.48651672 123.33020966 25.49201538 122.18888855 25.49768066 C120.37304008 25.47610901 120.37304008 25.47610901 118.52050781 25.45410156 C117.24220596 25.45468567 115.96390411 25.45526978 114.64686584 25.45587158 C111.14492308 25.45701909 107.64352852 25.43350472 104.14171314 25.40557575 C100.4808766 25.38056773 96.82002743 25.37822059 93.15911865 25.37347412 C86.22822587 25.36104252 79.29758552 25.32821863 72.36680388 25.28807616 C64.47572403 25.24336402 56.58463212 25.22137285 48.69345713 25.20129442 C32.46213369 25.15948593 16.23115794 25.08613154 0 25 C0 16.75 0 8.5 0 0 Z " fill="#EAEFF7" transform="translate(31,66)"/>
<path d="M0 0 C0 0.66 0 1.32 0 2 C0.92224365 2.06469482 1.8444873 2.12938965 2.79467773 2.19604492 C6.25732987 2.44929307 9.71738161 2.72184625 13.17749023 3.00708008 C14.66746153 3.12602669 16.15804838 3.23753035 17.64916992 3.34106445 C26.3011294 3.9472527 33.79861918 4.65000428 41 10 C41 10.99 41 11.98 41 13 C41.66 13 42.32 13 43 13 C45.1194551 17.2389102 45.73248507 21.33040766 45 26 C42.59980377 30.89270769 40.13722479 33.18686184 35 35 C30.56243036 35.37606522 28.74183875 35.49455917 25 33 C25.44823571 30.90823334 25.89878183 29.17631553 26.96875 27.3125 C28.36838044 24.17393477 28.68410309 21.15120472 29.125 17.75 C29.29257813 16.48671875 29.46015625 15.2234375 29.6328125 13.921875 C29.81457031 12.47554687 29.81457031 12.47554687 30 11 C29.34 11 28.68 11 28 11 C28 12.98 28 14.96 28 17 C26.35 17 24.7 17 23 17 C23 15.35 23 13.7 23 12 C22.34 12 21.68 12 21 12 C21.020625 13.216875 21.04125 14.43375 21.0625 15.6875 C21.06824116 18.91977322 20.78766315 21.84934741 20 25 C20.66 25 21.32 25 22 25 C22 23.35 22 21.7 22 20 C23.65 20 25.3 20 27 20 C26.6875 22.875 26.6875 22.875 26 26 C22.77626323 28.14915785 21.73296326 28.38286803 18 28 C16 26 16 26 15.8046875 22.5234375 C15.81798507 21.14049032 15.84183768 19.75761346 15.875 18.375 C15.88402344 17.66859375 15.89304687 16.9621875 15.90234375 16.234375 C15.92592397 14.48943902 15.96179539 12.74467705 16 11 C15.86722656 11.98742187 15.73445313 12.97484375 15.59765625 13.9921875 C15.42105469 15.27351563 15.24445313 16.55484375 15.0625 17.875 C14.88847656 19.15117188 14.71445313 20.42734375 14.53515625 21.7421875 C14 25 14 25 13 27 C11.68 27 10.36 27 9 27 C8.89522488 21.21408489 9.00749455 15.70690634 10 10 C9.34 10 8.68 10 8 10 C8 11.32 8 12.64 8 14 C6.68 14 5.36 14 4 14 C4 13.34 4 12.68 4 12 C3.34 12 2.68 12 2 12 C3.52206009 14.62901288 4.84365964 16.84365964 7 19 C7.32954432 22.09771665 7.45334601 24.17331023 5.9375 26.9375 C2.87530347 28.61676907 0.30629059 27.68621125 -3 27 C-3 25.02 -3 23.04 -3 21 C-1.68 21 -0.36 21 1 21 C1 21.99 1 22.98 1 24 C1.66 24 2.32 24 3 24 C2.25108848 20.80992128 2.25108848 20.80992128 -0.5625 19.0625 C-1.366875 18.381875 -2.17125 17.70125 -3 17 C-3 15.68 -3 14.36 -3 13 C-4.32 13 -5.64 13 -7 13 C-7 13.99 -7 14.98 -7 16 C-6.34 16 -5.68 16 -5 16 C-5 17.32 -5 18.64 -5 20 C-5.99 20 -6.98 20 -8 20 C-8 21.32 -8 22.64 -8 24 C-7.01 24 -6.02 24 -5 24 C-5 24.99 -5 25.98 -5 27 C-7.64 27 -10.28 27 -13 27 C-13 23.37 -13 19.74 -13 16 C-14.65 16 -16.3 16 -18 16 C-18 14.68 -18 13.36 -18 12 C-18.99 12 -19.98 12 -21 12 C-21 15.96 -21 19.92 -21 24 C-20.34 24 -19.68 24 -19 24 C-19 22.02 -19 20.04 -19 18 C-17.68 18 -16.36 18 -15 18 C-15 20.97 -15 23.94 -15 27 C-21.93359375 27.87890625 -21.93359375 27.87890625 -24 28 C-25.87824891 26.12175109 -25.39102397 22.96064724 -25.5625 20.4375 C-25.64628906 19.23996094 -25.73007813 18.04242188 -25.81640625 16.80859375 C-25.87699219 15.88175781 -25.93757813 14.95492187 -26 14 C-26.03867188 14.88751953 -26.03867188 14.88751953 -26.078125 15.79296875 C-26.36205242 19.74859399 -26.77481255 22.56694722 -28.625 26.125 C-31 28 -31 28 -34.75 27.8125 C-35.8225 27.544375 -36.895 27.27625 -38 27 C-38.495 20.565 -38.495 20.565 -39 14 C-39.66 18.29 -40.32 22.58 -41 27 C-42.32 27 -43.64 27 -45 27 C-45.33 23.37 -45.66 19.74 -46 16 C-47.38100634 18.76201268 -46.93187719 21.08996496 -46.7421875 24.125 C-46.82726562 24.74375 -46.91234375 25.3625 -47 26 C-50.20380017 28.13586678 -51.01939967 28.23132175 -54.6875 28.125 C-55.49574219 28.10695312 -56.30398437 28.08890625 -57.13671875 28.0703125 C-57.75160156 28.04710937 -58.36648437 28.02390625 -59 28 C-59.05791844 24.87507749 -59.09356746 21.75029234 -59.125 18.625 C-59.14175781 17.73554687 -59.15851562 16.84609375 -59.17578125 15.9296875 C-59.18222656 15.07890625 -59.18867187 14.228125 -59.1953125 13.3515625 C-59.20578613 12.56604004 -59.21625977 11.78051758 -59.22705078 10.97119141 C-59 9 -59 9 -57 7 C-59.97 6.505 -59.97 6.505 -63 6 C-60.51023236 2.93211133 -58.57289395 2.49657855 -54.70703125 2.05078125 C-53.61616211 1.92485596 -52.52529297 1.79893066 -51.40136719 1.66918945 C-50.21704102 1.55148193 -49.03271484 1.43377441 -47.8125 1.3125 C-45.98380371 1.12143677 -45.98380371 1.12143677 -44.11816406 0.92651367 C-29.43075637 -0.45704236 -14.73649787 -0.28139611 0 0 Z " fill="#F8C3A6" transform="translate(122,102)"/>
<path d="M0 0 C0.89460938 -0.00128906 1.78921875 -0.00257812 2.7109375 -0.00390625 C3.65195313 -0.00003906 4.59296875 0.00382812 5.5625 0.0078125 C6.97402344 0.00201172 6.97402344 0.00201172 8.4140625 -0.00390625 C9.75597656 -0.00197266 9.75597656 -0.00197266 11.125 0 C11.95128906 0.00112793 12.77757813 0.00225586 13.62890625 0.00341797 C15.5625 0.1328125 15.5625 0.1328125 16.5625 1.1328125 C19.56581018 1.27474587 22.55467134 1.17517628 25.5625 1.1328125 C26.0575 6.5778125 26.0575 6.5778125 26.5625 12.1328125 C27.2225 8.5028125 27.8825 4.8728125 28.5625 1.1328125 C30.8725 1.1328125 33.1825 1.1328125 35.5625 1.1328125 C36.0575 2.1228125 36.0575 2.1228125 36.5625 3.1328125 C36.8925 2.1428125 37.2225 1.1528125 37.5625 0.1328125 C39.8725 0.1328125 42.1825 0.1328125 44.5625 0.1328125 C45.0575 2.1128125 45.0575 2.1128125 45.5625 4.1328125 C46.119375 3.4728125 46.67625 2.8128125 47.25 2.1328125 C49.5625 0.1328125 49.5625 0.1328125 52.125 -0.2421875 C54.5625 0.1328125 54.5625 0.1328125 57.5625 2.1328125 C58.25 4.2578125 58.25 4.2578125 58.5625 6.1328125 C58.8925 4.4828125 59.2225 2.8328125 59.5625 1.1328125 C61.2125 1.1328125 62.8625 1.1328125 64.5625 1.1328125 C64.74701025 11.69089906 64.74701025 11.69089906 63.5625 16.1328125 C64.5525 16.1328125 65.5425 16.1328125 66.5625 16.1328125 C66.0675 18.6078125 66.0675 18.6078125 65.5625 21.1328125 C62.9225 21.1328125 60.2825 21.1328125 57.5625 21.1328125 C57.0675 20.1428125 57.0675 20.1428125 56.5625 19.1328125 C56.03551514 19.78279205 55.50853027 20.43277161 54.96557617 21.10244751 C51.84363954 23.74017947 50.1640198 23.62867787 46.11328125 23.61865234 C44.15104614 23.62788223 44.15104614 23.62788223 42.14916992 23.63729858 C40.72443947 23.62350178 39.29971599 23.60896774 37.875 23.59375 C36.4105648 23.59136455 34.94612651 23.59046047 33.48168945 23.5909729 C30.41500644 23.58784735 27.34879176 23.57130206 24.28222656 23.54443359 C20.35461323 23.51045383 16.42751423 23.50280518 12.49977112 23.50432396 C9.4765534 23.50377966 6.45344774 23.49280288 3.43026733 23.47832108 C1.98221687 23.47196433 0.53415374 23.46801681 -0.91390991 23.46653366 C-2.93874689 23.46218891 -4.96353593 23.44308912 -6.98828125 23.42333984 C-8.13981689 23.41571625 -9.29135254 23.40809265 -10.4777832 23.40023804 C-13.34143669 23.14149231 -15.01310099 22.62341388 -17.4375 21.1328125 C-13.9725 20.6378125 -13.9725 20.6378125 -10.4375 20.1328125 C-9.4475 16.6678125 -9.4475 16.6678125 -8.4375 13.1328125 C-10.0875 13.1328125 -11.7375 13.1328125 -13.4375 13.1328125 C-13.4375 14.4528125 -13.4375 15.7728125 -13.4375 17.1328125 C-14.0975 17.1328125 -14.7575 17.1328125 -15.4375 17.1328125 C-15.1075 12.8428125 -14.7775 8.5528125 -14.4375 4.1328125 C-13.7775 4.1328125 -13.1175 4.1328125 -12.4375 4.1328125 C-12.4375 5.7828125 -12.4375 7.4328125 -12.4375 9.1328125 C-10.7875 9.1328125 -9.1375 9.1328125 -7.4375 9.1328125 C-7.4375 9.4628125 -7.4375 9.7928125 -7.4375 10.1328125 C-9.0875 10.4628125 -10.7375 10.7928125 -12.4375 11.1328125 C-10.7875 11.4628125 -9.1375 11.7928125 -7.4375 12.1328125 C-5.99068676 9.23918601 -6.00507624 6.3245116 -5.71875 3.12890625 C-5.19244344 -0.6064084 -3.36420598 0.00459232 0 0 Z " fill="#DCE4F2" transform="translate(109.4375,67.8671875)"/>
<path d="M0 0 C0 0.99 0 1.98 0 3 C-0.66 3 -1.32 3 -2 3 C-2 3.99 -2 4.98 -2 6 C-1.32453125 5.69964844 -0.6490625 5.39929688 0.046875 5.08984375 C0.93890625 4.70957031 1.8309375 4.32929687 2.75 3.9375 C4.07257812 3.36322266 4.07257812 3.36322266 5.421875 2.77734375 C8.15256309 1.95399992 9.36901347 2.0226008 12 3 C11.34 3.66 10.68 4.32 10 5 C9.79413057 7.66269766 9.79413057 7.66269766 9.9375 10.6875 C10.02041372 15.28091996 9.82052923 19.48708921 9 24 C10.43791516 23.85831863 11.8753237 23.71148957 13.3125 23.5625 C14.51326172 23.44068359 14.51326172 23.44068359 15.73828125 23.31640625 C18.16087179 23.04734307 18.16087179 23.04734307 21 22 C20.90460938 21.41992188 20.80921875 20.83984375 20.7109375 20.2421875 C20.00093063 15.23911581 19.92522829 11.75977038 22 7 C22.33 7 22.66 7 23 7 C23 12.28 23 17.56 23 23 C24.32 23 25.64 23 27 23 C27.04898438 22.09636719 27.09796875 21.19273438 27.1484375 20.26171875 C27.22320312 19.08222656 27.29796875 17.90273437 27.375 16.6875 C27.44460937 15.51574219 27.51421875 14.34398438 27.5859375 13.13671875 C28 10 28 10 30 7 C30 12.28 30 17.56 30 23 C36.46789796 23.7098368 36.46789796 23.7098368 38.875 21.5625 C40.27632078 18.37060267 40.50168824 15.48435388 40.69140625 12.0234375 C41 10 41 10 43 8 C42.91299202 10.43922361 42.80613998 12.87478414 42.6875 15.3125 C42.66494141 16.00279297 42.64238281 16.69308594 42.61914062 17.40429688 C42.46727895 20.26205741 42.30205443 22.50537366 40.79296875 24.9765625 C38.28209959 26.40978193 36.50020748 26.22052079 33.625 26.0625 C26.87081986 25.87259029 20.65076847 26.84334461 14 28 C18.29 28.66 22.58 29.32 27 30 C27 30.66 27 31.32 27 32 C27.66386719 31.98839844 28.32773438 31.97679687 29.01171875 31.96484375 C37.78207381 31.87521968 37.78207381 31.87521968 42 33 C42 33.66 42 34.32 42 35 C45.81248345 35.02936502 49.62493726 35.04692035 53.4375 35.0625 C54.50677734 35.07087891 55.57605469 35.07925781 56.67773438 35.08789062 C62.16599949 35.10467431 67.45754914 34.89045612 72.89819336 34.19360352 C76.47629622 33.86401407 79.98959565 34.14617603 83.5625 34.4375 C84.28501953 34.48970703 85.00753906 34.54191406 85.75195312 34.59570312 C87.5018484 34.72317894 89.25102134 34.8605109 91 35 C91 35.66 91 36.32 91 37 C90.34 37 89.68 37 89 37 C89 37.66 89 38.32 89 39 C78.58453653 40.64503992 68.42084214 41.33195851 57.875 41.25 C57.15999329 41.24689819 56.44498657 41.24379639 55.70831299 41.24060059 C38.39516822 41.15294885 21.54779225 40.47522277 5 35 C4.10667969 34.72542969 3.21335937 34.45085937 2.29296875 34.16796875 C-2.95604578 32.26161024 -6.10870517 29.51933204 -8.9609375 24.69921875 C-11.18267574 18.92771076 -11.42895674 12.44459898 -9.0390625 6.68359375 C-6.67387232 3.07554886 -4.16457343 1.07089031 0 0 Z " fill="#EB9475" transform="translate(54,106)"/>
<path d="M0 0 C50.49 0 100.98 0 153 0 C153 9.57 153 19.14 153 29 C102.51 29 52.02 29 0 29 C0 19.43 0 9.86 0 0 Z M1 2 C1 10.25 1 18.5 1 27 C18.01120654 27.09027091 35.02220892 27.16396468 52.03358841 27.20724869 C59.93214742 27.22787979 67.83054714 27.25601066 75.72900391 27.30175781 C82.61277997 27.34160904 89.49644068 27.36742884 96.38032889 27.37635398 C100.02583581 27.38157171 103.67101268 27.39384608 107.31641388 27.42292023 C111.38459454 27.45510353 115.45220031 27.45596053 119.52050781 27.45410156 C121.33635628 27.47567322 121.33635628 27.47567322 123.18888855 27.49768066 C124.29664139 27.49218201 125.40439423 27.48668335 126.54571533 27.48101807 C127.50806721 27.48470524 128.47041908 27.48839241 129.46193314 27.49219131 C132.70459241 26.86336283 133.9083205 25.48354988 136 23 C136.33 23.66 136.66 24.32 137 25 C139.64 25 142.28 25 145 25 C145.33 23.35 145.66 21.7 146 20 C145.01 20 144.02 20 143 20 C143.165 19.38125 143.33 18.7625 143.5 18.125 C144.20075317 13.74529271 144.07734251 9.42571011 144 5 C142.35 5 140.7 5 139 5 C138.67 6.65 138.34 8.3 138 10 C137.896875 9.38125 137.79375 8.7625 137.6875 8.125 C137.12474627 5.63473516 137.12474627 5.63473516 134 4 C130.42823885 4.08167489 130.42823885 4.08167489 127 5 C126.34 5.99 125.68 6.98 125 8 C124.505 6.02 124.505 6.02 124 4 C121.69 4 119.38 4 117 4 C116.67 4.99 116.34 5.98 116 7 C115.505 6.01 115.505 6.01 115 5 C112.69 5 110.38 5 108 5 C107.34 8.63 106.68 12.26 106 16 C105.505 10.555 105.505 10.555 105 5 C102.8034375 5.0309375 102.8034375 5.0309375 100.5625 5.0625 C99.04167482 5.08392007 97.51928038 5.07179964 96 5 C95.505 4.505 95.505 4.505 95 4 C93.52347336 3.90119203 92.04232764 3.86920755 90.5625 3.8671875 C89.66789062 3.86589844 88.77328125 3.86460938 87.8515625 3.86328125 C86.44003906 3.86908203 86.44003906 3.86908203 85 3.875 C84.05898437 3.87113281 83.11796875 3.86726563 82.1484375 3.86328125 C80.80652344 3.86521484 80.80652344 3.86521484 79.4375 3.8671875 C78.19806641 3.86887939 78.19806641 3.86887939 76.93359375 3.87060547 C74.99320961 3.78735193 74.99320961 3.78735193 74 5 C73.79231771 6.47396739 73.63283983 7.9549126 73.5 9.4375 C73.10958904 13.78082192 73.10958904 13.78082192 72 16 C70.35 15.67 68.7 15.34 67 15 C69.475 14.505 69.475 14.505 72 14 C72.0825 12.7625 72.165 11.525 72.25 10.25 C72.29640625 9.55390625 72.3428125 8.8578125 72.390625 8.140625 C71.8177385 5.00120696 70.47809242 3.96576798 68 2 C64.89656234 1.42143087 64.89656234 1.42143087 61.39550781 1.54589844 C60.74143448 1.54531433 60.08736115 1.54473022 59.41346741 1.54412842 C57.25947306 1.54690701 55.10687644 1.57798452 52.953125 1.609375 C51.45669307 1.61683828 49.96025136 1.62253081 48.46380615 1.62652588 C44.5311571 1.64177561 40.59910193 1.68105088 36.66668701 1.7253418 C32.65157098 1.76630926 28.63635869 1.78453999 24.62109375 1.8046875 C16.74709334 1.84754668 8.87368904 1.9178903 1 2 Z " fill="#9CB3DD" transform="translate(30,64)"/>
<path d="M0 0 C5.90720283 0.68706771 11.54437441 0.3691753 17.44775391 -0.11938477 C21.32357305 -0.41714468 24.59960196 -0.32891343 28.375 0.5625 C29.74941001 0.60277575 31.12567616 0.60561604 32.5 0.5625 C36.375 0.5625 36.375 0.5625 39.375 1.5625 C39.375 5.8525 39.375 10.1425 39.375 14.5625 C39.045 14.5625 38.715 14.5625 38.375 14.5625 C38.375 12.5825 38.375 10.6025 38.375 8.5625 C36.725 8.5625 35.075 8.5625 33.375 8.5625 C33.375 7.2425 33.375 5.9225 33.375 4.5625 C32.385 4.5625 31.395 4.5625 30.375 4.5625 C30.375 8.5225 30.375 12.4825 30.375 16.5625 C31.035 16.5625 31.695 16.5625 32.375 16.5625 C32.375 14.5825 32.375 12.6025 32.375 10.5625 C33.695 10.5625 35.015 10.5625 36.375 10.5625 C36.375 13.5325 36.375 16.5025 36.375 19.5625 C29.44140625 20.44140625 29.44140625 20.44140625 27.375 20.5625 C25.49675109 18.68425109 25.98397603 15.52314724 25.8125 13 C25.72871094 11.80246094 25.64492187 10.60492188 25.55859375 9.37109375 C25.49800781 8.44425781 25.43742187 7.51742187 25.375 6.5625 C25.33632812 7.45001953 25.33632812 7.45001953 25.296875 8.35546875 C25.01294758 12.31109399 24.60018745 15.12944722 22.75 18.6875 C20.375 20.5625 20.375 20.5625 16.625 20.375 C15.5525 20.106875 14.48 19.83875 13.375 19.5625 C12.88 13.1275 12.88 13.1275 12.375 6.5625 C11.715 10.8525 11.055 15.1425 10.375 19.5625 C9.055 19.5625 7.735 19.5625 6.375 19.5625 C6.045 15.9325 5.715 12.3025 5.375 8.5625 C3.99399366 11.32451268 4.44312281 13.65246496 4.6328125 16.6875 C4.54773438 17.30625 4.46265625 17.925 4.375 18.5625 C1.17119983 20.69836678 0.35560033 20.79382175 -3.3125 20.6875 C-4.52486328 20.66042969 -4.52486328 20.66042969 -5.76171875 20.6328125 C-6.37660156 20.60960937 -6.99148437 20.58640625 -7.625 20.5625 C-7.71187496 17.43767438 -7.76534568 14.31315754 -7.8125 11.1875 C-7.83763672 10.29804687 -7.86277344 9.40859375 -7.88867188 8.4921875 C-7.89833984 7.64140625 -7.90800781 6.790625 -7.91796875 5.9140625 C-7.9336792 5.12854004 -7.94938965 4.34301758 -7.96557617 3.53369141 C-7.85318604 2.88319824 -7.7407959 2.23270508 -7.625 1.5625 C-4.21085809 -0.71359461 -3.83191918 -0.57538105 0 0 Z " fill="#DCAC9C" transform="translate(70.625,109.4375)"/>
<path d="M0 0 C27.72 0 55.44 0 84 0 C84 8.25 84 16.5 84 25 C77.4 25 70.8 25 64 25 C64.99 23.68 65.98 22.36 67 21 C67.71433121 18.35065178 67.71433121 18.35065178 68 16 C68.33 16 68.66 16 69 16 C69 18.31 69 20.62 69 23 C72.96 22.505 72.96 22.505 77 22 C77.33 20.68 77.66 19.36 78 18 C77.01 18 76.02 18 75 18 C75.33 13.05 75.66 8.1 76 3 C74.35 3 72.7 3 71 3 C70.67 6.63 70.34 10.26 70 14 C69.67 14 69.34 14 69 14 C69 10.7 69 7.4 69 4 C65.01319758 3.27501596 65.01319758 3.27501596 61 3 C59.05967596 4.18895236 59.05967596 4.18895236 58 6 C57.34 6.66 56.68 7.32 56 8 C56 6.02 56 4.04 56 2 C53.69 2 51.38 2 49 2 C48.67 3.98 48.34 5.96 48 8 C47.67 8 47.34 8 47 8 C47 6.35 47 4.7 47 3 C44.69 3 42.38 3 40 3 C39.95101562 3.74765625 39.90203125 4.4953125 39.8515625 5.265625 C39.77679688 6.25046875 39.70203125 7.2353125 39.625 8.25 C39.55539063 9.22453125 39.48578125 10.1990625 39.4140625 11.203125 C39 14 39 14 37 18 C37 13.05 37 8.1 37 3 C34.03 3 31.06 3 28 3 C27.67 3.99 27.34 4.98 27 6 C27 4.68 27 3.36 27 2 C20.4 2.33 13.8 2.66 7 3 C6.34 6.96 5.68 10.92 5 15 C2.69 14.67 0.38 14.34 -2 14 C-1.67 13.34 -1.34 12.68 -1 12 C0.65 12 2.3 12 4 12 C3.896875 10.72125 3.79375 9.4425 3.6875 8.125 C3.60048828 7.04605469 3.60048828 7.04605469 3.51171875 5.9453125 C3.12606964 3.60480784 3.12606964 3.60480784 0 2 C0 1.34 0 0.68 0 0 Z " fill="#F7F8FC" transform="translate(98,66)"/>
<path d="M0 0 C0.89460938 -0.00128906 1.78921875 -0.00257812 2.7109375 -0.00390625 C3.65195313 -0.00003906 4.59296875 0.00382812 5.5625 0.0078125 C6.97402344 0.00201172 6.97402344 0.00201172 8.4140625 -0.00390625 C9.75597656 -0.00197266 9.75597656 -0.00197266 11.125 0 C11.95128906 0.00112793 12.77757813 0.00225586 13.62890625 0.00341797 C15.5625 0.1328125 15.5625 0.1328125 16.5625 1.1328125 C19.2025 1.1328125 21.8425 1.1328125 24.5625 1.1328125 C24.5625 7.4028125 24.5625 13.6728125 24.5625 20.1328125 C23.2425 20.1328125 21.9225 20.1328125 20.5625 20.1328125 C20.5625 19.1428125 20.5625 18.1528125 20.5625 17.1328125 C19.5725 17.1328125 18.5825 17.1328125 17.5625 17.1328125 C17.5625 18.1228125 17.5625 19.1128125 17.5625 20.1328125 C15.9125 20.1328125 14.2625 20.1328125 12.5625 20.1328125 C13.5525 15.1828125 14.5425 10.2328125 15.5625 5.1328125 C14.2425 5.1328125 12.9225 5.1328125 11.5625 5.1328125 C11.57410156 5.79667969 11.58570312 6.46054688 11.59765625 7.14453125 C11.68728032 15.91488631 11.68728032 15.91488631 10.5625 20.1328125 C8.9125 20.1328125 7.2625 20.1328125 5.5625 20.1328125 C5.37798975 9.57472594 5.37798975 9.57472594 6.5625 5.1328125 C4.5825 5.1328125 2.6025 5.1328125 0.5625 5.1328125 C0.5625 6.1228125 0.5625 7.1128125 0.5625 8.1328125 C1.2225 8.1328125 1.8825 8.1328125 2.5625 8.1328125 C2.5625 9.7828125 2.5625 11.4328125 2.5625 13.1328125 C1.5725 13.1328125 0.5825 13.1328125 -0.4375 13.1328125 C-0.4375 14.1228125 -0.4375 15.1128125 -0.4375 16.1328125 C0.5525 16.1328125 1.5425 16.1328125 2.5625 16.1328125 C2.5625 17.4528125 2.5625 18.7728125 2.5625 20.1328125 C-0.4075 20.1328125 -3.3775 20.1328125 -6.4375 20.1328125 C-6.52830075 13.68595946 -6.34984308 7.51921406 -5.4375 1.1328125 C-3.84812444 -0.45656306 -2.19850154 0.00300107 0 0 Z " fill="#144CAD" transform="translate(109.4375,67.8671875)"/>
<path d="M0 0 C0.66 0 1.32 0 2 0 C1.67 5.61 1.34 11.22 1 17 C2.32 17 3.64 17 5 17 C5.18175781 15.28490234 5.18175781 15.28490234 5.3671875 13.53515625 C5.53597321 12.04421583 5.70527047 10.55333327 5.875 9.0625 C5.95363281 8.30775391 6.03226563 7.55300781 6.11328125 6.77539062 C6.33883808 4.84080701 6.66258974 2.91823981 7 1 C7.66 0.67 8.32 0.34 9 0 C8.98839844 1.14339844 8.97679687 2.28679687 8.96484375 3.46484375 C8.95546712 4.95572754 8.94636679 6.44661309 8.9375 7.9375 C8.92493164 9.06961914 8.92493164 9.06961914 8.91210938 10.22460938 C8.90347559 12.14994313 8.94775667 14.07535581 9 16 C9.33 16.33 9.66 16.66 10 17 C12.33944736 16.71269945 14.6739143 16.38063221 17 16 C17.66 14.02 18.32 12.04 19 10 C17.35 10 15.7 10 14 10 C14 11.65 14 13.3 14 15 C13.34 15 12.68 15 12 15 C12.495 8.565 12.495 8.565 13 2 C13.66 2 14.32 2 15 2 C15 3.65 15 5.3 15 7 C16.65 7 18.3 7 20 7 C20 5.02 20 3.04 20 1 C20.66 1 21.32 1 22 1 C22.21354229 6.87241294 21.88691666 12.38584055 20 18 C18 20 18 20 15.89926147 20.24050903 C15.03322296 20.23606781 14.16718445 20.23162659 13.27490234 20.22705078 C12.29403656 20.22689972 11.31317078 20.22674866 10.30258179 20.22659302 C9.24108917 20.21627045 8.17959656 20.20594788 7.0859375 20.1953125 C6.00116119 20.1924826 4.91638489 20.18965271 3.79873657 20.18673706 C0.32404687 20.17551578 -3.15038782 20.15040762 -6.625 20.125 C-8.97655879 20.11497272 -11.3281216 20.10584643 -13.6796875 20.09765625 C-19.45321244 20.07557011 -25.22658801 20.04207345 -31 20 C-31.33 19.34 -31.66 18.68 -32 18 C-29.03 17.67 -26.06 17.34 -23 17 C-23 14.03 -23 11.06 -23 8 C-24.32 8 -25.64 8 -27 8 C-27 9.98 -27 11.96 -27 14 C-27.66 14 -28.32 14 -29 14 C-29 10.04 -29 6.08 -29 2 C-28.01 2 -27.02 2 -26 2 C-26 3.32 -26 4.64 -26 6 C-24.35 6 -22.7 6 -21 6 C-21 9.63 -21 13.26 -21 17 C-18.36 17 -15.72 17 -13 17 C-13 16.01 -13 15.02 -13 14 C-13.99 14 -14.98 14 -16 14 C-16 12.68 -16 11.36 -16 10 C-15.01 10 -14.02 10 -13 10 C-13 8.68 -13 7.36 -13 6 C-13.66 6 -14.32 6 -15 6 C-15 5.01 -15 4.02 -15 3 C-13.68 3 -12.36 3 -11 3 C-10.7525 3.763125 -10.505 4.52625 -10.25 5.3125 C-8.87213641 8.27490672 -7.5717159 9.11407501 -5 11 C-5 11.99 -5 12.98 -5 14 C-5.66 14 -6.32 14 -7 14 C-7 13.01 -7 12.02 -7 11 C-8.32 11 -9.64 11 -11 11 C-11 12.98 -11 14.96 -11 17 C-7.58343976 17.16677282 -7.58343976 17.16677282 -4 17 C-1.719279 15.12575284 -1.719279 15.12575284 -1.625 12.125 C-2.08108718 8.32427354 -3.2392609 7.50191981 -6 5 C-6 4.01 -6 3.02 -6 2 C-5.34 2 -4.68 2 -4 2 C-4 2.66 -4 3.32 -4 4 C-2.68 4 -1.36 4 0 4 C0 2.68 0 1.36 0 0 Z " fill="#BE8F7D" transform="translate(130,112)"/>
<path d="M0 0 C1.57875664 -0.00642769 1.57875664 -0.00642769 3.18940735 -0.01298523 C5.40027147 -0.01868463 7.61115433 -0.01926156 9.82202148 -0.01489258 C13.15056439 -0.01174261 16.4782077 -0.03521409 19.80664062 -0.06054688 C48.09159371 -0.14465844 48.09159371 -0.14465844 60.48828125 5.30078125 C60.48828125 5.63078125 60.48828125 5.96078125 60.48828125 6.30078125 C58.55086756 6.32850259 56.61332892 6.34749215 54.67578125 6.36328125 C53.59683594 6.37488281 52.51789063 6.38648437 51.40625 6.3984375 C48.42345471 6.32409066 45.58714305 6.12347898 42.62890625 5.8125 C34.78209132 5.06228426 26.92601328 5.06033601 19.05078125 5.05078125 C18.24667816 5.04877716 17.44257507 5.04677307 16.61410522 5.04470825 C-7.64271391 4.05177979 -7.64271391 4.05177979 -30.51171875 9.30078125 C-29.85171875 9.96078125 -29.19171875 10.62078125 -28.51171875 11.30078125 C-33.46171875 12.78578125 -33.46171875 12.78578125 -38.51171875 14.30078125 C-38.51171875 11.30078125 -38.51171875 11.30078125 -36.51171875 9.30078125 C-37.17171875 8.97078125 -37.83171875 8.64078125 -38.51171875 8.30078125 C-27.76165107 0.77573387 -12.68777804 -0.01181874 0 0 Z " fill="#F4A081" transform="translate(90.51171875,97.69921875)"/>
<path d="M0 0 C3 2 3 2 3.6875 4.125 C3.8421875 5.053125 3.8421875 5.053125 4 6 C4.33 4.35 4.66 2.7 5 1 C6.65 1 8.3 1 10 1 C10.18451025 11.55808656 10.18451025 11.55808656 9 16 C9.99 16 10.98 16 12 16 C11.67 17.65 11.34 19.3 11 21 C8.36 21 5.72 21 3 21 C2.67 19.02 2.34 17.04 2 15 C1.525625 15.804375 1.05125 16.60875 0.5625 17.4375 C-1 20 -1 20 -2 21 C-4.9375 21.1875 -4.9375 21.1875 -8 21 C-10 19 -10 19 -10.265625 17.1171875 C-10.22825307 11.75431576 -9.70201734 7.10605201 -8 2 C-4.75366476 -0.1642235 -3.75698557 -0.37569856 0 0 Z " fill="#3363B8" transform="translate(164,68)"/>
<path d="M0 0 C0.94101563 0.18304688 1.88203125 0.36609375 2.8515625 0.5546875 C5.375 1.125 5.375 1.125 8.375 2.125 C10.4128948 2.19707409 12.45313046 2.2088607 14.4921875 2.1875 C16.34880005 2.17481079 16.34880005 2.17481079 18.24291992 2.16186523 C18.89747162 2.15565155 19.55202332 2.14943787 20.22640991 2.14303589 C30.34616818 2.05284033 40.45144916 2.07609511 50.5625 2.5625 C51.42149902 2.60181641 52.28049805 2.64113281 53.16552734 2.68164062 C56.43555447 2.85625698 59.25335407 3.08445136 62.375 4.125 C63.85465926 4.27073058 65.33903843 4.37163268 66.82421875 4.44140625 C67.67177734 4.48330078 68.51933594 4.52519531 69.39257812 4.56835938 C70.27365234 4.60767578 71.15472656 4.64699219 72.0625 4.6875 C73.40151367 4.75227539 73.40151367 4.75227539 74.76757812 4.81835938 C76.96990108 4.92435353 79.17233473 5.02642051 81.375 5.125 C78.98768352 7.6403914 77.19399584 8.79079469 73.875 9.875 C73.1015625 10.13796875 72.328125 10.4009375 71.53125 10.671875 C69.375 11.125 69.375 11.125 66.375 10.125 C67.035 10.125 67.695 10.125 68.375 10.125 C68.375 9.465 68.375 8.805 68.375 8.125 C65.04168561 8.09562562 61.70840517 8.07807666 58.375 8.0625 C57.44042969 8.05412109 56.50585938 8.04574219 55.54296875 8.03710938 C51.42439461 8.02270877 47.42150238 8.04531015 43.34375 8.65625 C38.44528035 9.23480941 33.78523422 8.99795812 28.875 8.6875 C27.9571875 8.63529297 27.039375 8.58308594 26.09375 8.52929688 C23.85370739 8.4009611 21.61427025 8.26607403 19.375 8.125 C19.375 7.465 19.375 6.805 19.375 6.125 C14.425 5.795 9.475 5.465 4.375 5.125 C4.375 4.465 4.375 3.805 4.375 3.125 C3.45976563 3.07601562 2.54453125 3.02703125 1.6015625 2.9765625 C0.41304687 2.90179688 -0.77546875 2.82703125 -2 2.75 C-3.18335937 2.68039063 -4.36671875 2.61078125 -5.5859375 2.5390625 C-8.625 2.125 -8.625 2.125 -10.625 0.125 C-6.75570211 -0.87398237 -3.90573459 -0.78545076 0 0 Z " fill="#F59C7C" transform="translate(76.625,132.875)"/>
<path d="M0 0 C8.52036226 -0.36182016 16.70840035 0.76422942 25.125 2 C26.47647151 2.19334542 27.82803369 2.38605819 29.1796875 2.578125 C32.4540675 3.04589357 35.72739571 3.51999251 39 4 C39 4.66 39 5.32 39 6 C42.81248345 6.02936502 46.62493726 6.04692035 50.4375 6.0625 C52.04141602 6.07506836 52.04141602 6.07506836 53.67773438 6.08789062 C59.16599949 6.10467431 64.45754914 5.89045612 69.89819336 5.19360352 C73.47629622 4.86401407 76.98959565 5.14617603 80.5625 5.4375 C81.28501953 5.48970703 82.00753906 5.54191406 82.75195312 5.59570312 C84.5018484 5.72317894 86.25102134 5.8605109 88 6 C88 6.66 88 7.32 88 8 C87.34 8 86.68 8 86 8 C86 8.66 86 9.32 86 10 C75.09992371 11.76930509 64.58547539 12.254266 53.5625 12.125 C52.04102164 12.11493151 50.51953669 12.10581262 48.99804688 12.09765625 C45.3318904 12.07599182 41.66599017 12.04168449 38 12 C38 11.67 38 11.34 38 11 C50.375 10.505 50.375 10.505 63 10 C60.92460938 9.87882813 58.84921875 9.75765625 56.7109375 9.6328125 C54.64867616 9.50837378 52.5865444 9.38196011 50.52441406 9.25537109 C49.11665948 9.1699848 47.7087832 9.08657648 46.30078125 9.00537109 C30.45958399 8.08884468 15.03045754 6.32994948 0 1 C0 0.67 0 0.34 0 0 Z " fill="#F28B6A" transform="translate(57,135)"/>
<path d="M0 0 C1.44207941 2.88415883 1.09394887 5.41721528 1.0625 8.625 C1.05347656 9.81351563 1.04445312 11.00203125 1.03515625 12.2265625 C1.02355469 13.14179688 1.01195312 14.05703125 1 15 C1.66 15 2.32 15 3 15 C3 15.66 3 16.32 3 17 C6.41685249 18.43088408 9.79413784 19.5560478 13.375 20.5 C16.33129019 21.28380028 19.27361557 22.08124492 22.20581055 22.9519043 C35.97226066 26.75470787 49.85896603 27.6242053 64.0625 28.1875 C65.9121547 28.2691621 67.76176487 28.35183925 69.61132812 28.43554688 C74.07379445 28.63535042 78.53662917 28.82159329 83 29 C83 29.33 83 29.66 83 30 C77.0089692 30.74007287 71.15094493 31.16936546 65.1171875 31.203125 C63.89118332 31.21167511 63.89118332 31.21167511 62.64041138 31.22039795 C60.92109441 31.22977667 59.20176004 31.23635325 57.48242188 31.24023438 C54.90201054 31.24989884 52.32241141 31.28097378 49.7421875 31.3125 C36.74617187 31.39597081 24.7066136 30.01022775 12.375 25.625 C11.26898438 25.24601562 10.16296875 24.86703125 9.0234375 24.4765625 C4.07170303 22.05827357 0.10848038 18.10474197 -2 13 C-2.34296535 9.30776368 -2.45680858 5.68413155 -2 2 C-1.34 1.34 -0.68 0.68 0 0 Z " fill="#E47655" transform="translate(46,115)"/>
<path d="M0 0 C2.31 0 4.62 0 7 0 C7.33 0.66 7.66 1.32 8 2 C8.33 1.34 8.66 0.68 9 0 C10.98 0 12.96 0 15 0 C14.67 6.27 14.34 12.54 14 19 C9.65055731 19.86988854 8.02871475 20.03595522 4 19 C3.67 18.01 3.34 17.02 3 16 C2.67 16.99 2.34 17.98 2 19 C0.68 19 -0.64 19 -2 19 C-2.24794402 12.4294834 -1.32388229 6.43028541 0 0 Z " fill="#2458B3" transform="translate(138,69)"/>
<path d="M0 0 C21.12 0 42.24 0 64 0 C64 0.66 64 1.32 64 2 C62.8553125 2.37125 62.8553125 2.37125 61.6875 2.75 C58.7635955 4.10995558 57.69995644 5.31585826 56 8 C56 6.02 56 4.04 56 2 C53.69 2 51.38 2 49 2 C48.67 3.98 48.34 5.96 48 8 C47.67 8 47.34 8 47 8 C47 6.35 47 4.7 47 3 C44.69 3 42.38 3 40 3 C39.95101562 3.74765625 39.90203125 4.4953125 39.8515625 5.265625 C39.77679688 6.25046875 39.70203125 7.2353125 39.625 8.25 C39.55539063 9.22453125 39.48578125 10.1990625 39.4140625 11.203125 C39 14 39 14 37 18 C37 13.05 37 8.1 37 3 C34.03 3 31.06 3 28 3 C27.67 3.99 27.34 4.98 27 6 C27 4.68 27 3.36 27 2 C20.4 2.33 13.8 2.66 7 3 C6.34 6.96 5.68 10.92 5 15 C2.69 14.67 0.38 14.34 -2 14 C-1.67 13.34 -1.34 12.68 -1 12 C0.65 12 2.3 12 4 12 C3.896875 10.72125 3.79375 9.4425 3.6875 8.125 C3.60048828 7.04605469 3.60048828 7.04605469 3.51171875 5.9453125 C3.12606964 3.60480784 3.12606964 3.60480784 0 2 C0 1.34 0 0.68 0 0 Z " fill="#EEF2F9" transform="translate(98,66)"/>
<path d="M0 0 C1.64574566 -0.02688151 3.29161413 -0.04634123 4.9375 -0.0625 C5.85402344 -0.07410156 6.77054687 -0.08570312 7.71484375 -0.09765625 C10 0 10 0 11 1 C11.02172852 2.76586914 11.02172852 2.76586914 10.87890625 5.03515625 C10.83056641 5.84404297 10.78222656 6.65292969 10.73242188 7.48632812 C10.67634766 8.33646484 10.62027344 9.18660156 10.5625 10.0625 C10.51029297 10.91650391 10.45808594 11.77050781 10.40429688 12.65039062 C10.27421239 14.76721995 10.13770029 16.88365244 10 19 C8.68 19 7.36 19 6 19 C6 16.36 6 13.72 6 11 C5.34 11 4.68 11 4 11 C4 13.64 4 16.28 4 19 C2.35 19 0.7 19 -1 19 C-1.10349817 12.58311325 -0.74507544 6.37305598 0 0 Z " fill="#1C51B0" transform="translate(64,69)"/>
<path d="M0 0 C1 1 1 1 1.0625 4.5625 C1.041875 5.696875 1.02125 6.83125 1 8 C-0.65 8 -2.3 8 -4 8 C-4 6.35 -4 4.7 -4 3 C-4.66 3 -5.32 3 -6 3 C-5.98839844 3.60328125 -5.97679688 4.2065625 -5.96484375 4.828125 C-5.95130859 6.02695313 -5.95130859 6.02695313 -5.9375 7.25 C-5.92589844 8.03890625 -5.91429688 8.8278125 -5.90234375 9.640625 C-5.99614694 11.90691002 -6.36758937 13.8288895 -7 16 C-6.34 16 -5.68 16 -5 16 C-5 14.68 -5 13.36 -5 12 C-3.35 12 -1.7 12 0 12 C-0.35494045 14.62655933 -0.72461964 16.57968261 -2.1875 18.8125 C-4.85243468 20.55849169 -6.89096439 20.33074847 -10 20 C-12 18 -12 18 -12.1171875 14.41015625 C-12.04795857 12.96034263 -11.96672965 11.51106407 -11.875 10.0625 C-11.85179688 9.33353516 -11.82859375 8.60457031 -11.8046875 7.85351562 C-11.61019215 4.53797765 -11.44188604 2.48919717 -9.17578125 -0.01953125 C-5.91008557 -1.49114636 -3.41537021 -0.77329137 0 0 Z " fill="#1B51B0" transform="translate(101,69)"/>
<path d="M0 0 C3.0625 0.1875 3.0625 0.1875 5.0625 2.1875 C5.74661278 7.57289943 5.83189879 12.55637456 3.5 17.5 C1.0625 19.1875 1.0625 19.1875 -2.6875 19 C-3.76 18.731875 -4.8325 18.46375 -5.9375 18.1875 C-6.15777044 12.10558846 -6.01814125 6.93986112 -3.9375 1.1875 C-2.9375 0.1875 -2.9375 0.1875 0 0 Z " fill="#E4D8D6" transform="translate(89.9375,110.8125)"/>
<path d="M0 0 C3.3 0 6.6 0 10 0 C10 5.61 10 11.22 10 17 C8 18 8 18 -1 18 C-0.505 9.09 -0.505 9.09 0 0 Z " fill="#F1ECEC" transform="translate(65,111)"/>
<path d="M0 0 C8.33910643 0.37905029 16.69913369 4.40163883 22.6875 10.1875 C25.79531559 13.96727571 26.12404064 16.44887091 26.0625 21.1875 C26.05347656 22.08855469 26.04445312 22.98960938 26.03515625 23.91796875 C26.02355469 24.60503906 26.01195312 25.29210937 26 26 C25.67 26 25.34 26 25 26 C25 24.02 25 22.04 25 20 C24.34 20 23.68 20 23 20 C22.67 18.35 22.34 16.7 22 15 C21.34 15 20.68 15 20 15 C20 14.01 20 13.02 20 12 C18.88625 11.566875 18.88625 11.566875 17.75 11.125 C15 10 15 10 13.125 8.9375 C7.17176576 6.31107313 -0.16076071 6.72118444 -6.59570312 6.48242188 C-11.63418407 6.2398792 -16.1377169 5.35398413 -21 4 C-21 3.34 -21 2.68 -21 2 C-19.97261719 2.0721875 -18.94523437 2.144375 -17.88671875 2.21875 C-9.91213746 2.75957932 -1.99817792 3.15250763 6 3 C4.02 2.34 2.04 1.68 0 1 C0 0.67 0 0.34 0 0 Z " fill="#F7B79C" transform="translate(143,100)"/>
<path d="M0 0 C2.64 0 5.28 0 8 0 C8 6.27 8 12.54 8 19 C6.68 19 5.36 19 4 19 C4 18.01 4 17.02 4 16 C3.01 16 2.02 16 1 16 C1 16.99 1 17.98 1 19 C-0.32 19 -1.64 19 -3 19 C-3.45510807 12.32508169 -1.7672426 6.40625443 0 0 Z " fill="#164DAE" transform="translate(53,69)"/>
<path d="M0 0 C2.64 0 5.28 0 8 0 C8 6.27 8 12.54 8 19 C6.68 19 5.36 19 4 19 C4 18.01 4 17.02 4 16 C3.01 16 2.02 16 1 16 C1 16.99 1 17.98 1 19 C-0.32 19 -1.64 19 -3 19 C-2.69127671 16.39533457 -2.37818277 13.79132309 -2.0625 11.1875 C-1.97548828 10.44951172 -1.88847656 9.71152344 -1.79882812 8.95117188 C-1.41783454 5.83266879 -0.99630626 2.98891878 0 0 Z " fill="#154CAE" transform="translate(79,69)"/>
<path d="M0 0 C0.94101563 0.18304688 1.88203125 0.36609375 2.8515625 0.5546875 C5.375 1.125 5.375 1.125 8.375 2.125 C10.4128948 2.19707409 12.45313046 2.2088607 14.4921875 2.1875 C16.34880005 2.17481079 16.34880005 2.17481079 18.24291992 2.16186523 C18.89747162 2.15565155 19.55202332 2.14943787 20.22640991 2.14303589 C30.34616818 2.05284033 40.45144916 2.07609511 50.5625 2.5625 C51.42149902 2.60181641 52.28049805 2.64113281 53.16552734 2.68164062 C56.43555447 2.85625698 59.25335407 3.08445136 62.375 4.125 C64.94134861 4.35218496 67.49178107 4.54108184 70.0625 4.6875 C70.76439453 4.73068359 71.46628906 4.77386719 72.18945312 4.81835938 C73.91775206 4.9241736 75.6463511 5.02506581 77.375 5.125 C77.375 5.455 77.375 5.785 77.375 6.125 C66.50205639 6.22616538 55.72801474 6.28703344 44.89453125 5.24609375 C42.37877479 4.91909745 42.37877479 4.91909745 40.375 6.125 C37.57303709 6.22361981 34.80145953 6.26396076 32 6.25 C30.84757812 6.25580078 30.84757812 6.25580078 29.671875 6.26171875 C28.92679688 6.26042969 28.18171875 6.25914062 27.4140625 6.2578125 C26.39626709 6.25612061 26.39626709 6.25612061 25.35791016 6.25439453 C23.25479458 6.11715601 21.41428184 5.64574562 19.375 5.125 C17.82218369 4.94095122 16.26547094 4.78813346 14.70703125 4.66015625 C13.81306641 4.58216797 12.91910156 4.50417969 11.99804688 4.42382812 C10.14406788 4.26793413 8.28990243 4.11423973 6.43554688 3.96289062 C0.59356616 3.44852869 -4.9259936 2.5162794 -10.625 1.125 C-10.625 0.795 -10.625 0.465 -10.625 0.125 C-6.75570211 -0.87398237 -3.90573459 -0.78545076 0 0 Z " fill="#F6AB8C" transform="translate(76.625,132.875)"/>
<path d="M0 0 C2.31 0 4.62 0 7 0 C7 6.27 7 12.54 7 19 C5.68 19 4.36 19 3 19 C3 18.01 3 17.02 3 16 C2.01 16 1.02 16 0 16 C0 16.99 0 17.98 0 19 C-1.65 19 -3.3 19 -5 19 C-3.43247063 12.63583076 -1.85735533 6.28643343 0 0 Z " fill="#114AAC" transform="translate(127,69)"/>
<path d="M0 0 C0.33 0 0.66 0 1 0 C1 5.28 1 10.56 1 16 C2.32 16 3.64 16 5 16 C5.04898438 15.09636719 5.09796875 14.19273438 5.1484375 13.26171875 C5.22320312 12.08222656 5.29796875 10.90273437 5.375 9.6875 C5.44460937 8.51574219 5.51421875 7.34398438 5.5859375 6.13671875 C6 3 6 3 8 0 C8 5.28 8 10.56 8 16 C14.46789796 16.7098368 14.46789796 16.7098368 16.875 14.5625 C18.27632078 11.37060267 18.50168824 8.48435388 18.69140625 5.0234375 C19 3 19 3 21 1 C20.91299202 3.43922361 20.80613998 5.87478414 20.6875 8.3125 C20.66494141 9.00279297 20.64238281 9.69308594 20.61914062 10.40429688 C20.35056913 15.45832416 20.35056913 15.45832416 18.89648438 17.70507812 C16.01648412 19.67154586 13.59621339 19.33666093 10.14453125 19.29296875 C9.48289474 19.28872391 8.82125824 19.28447906 8.13957214 19.28010559 C6.0301309 19.26333693 3.92165154 19.22569099 1.8125 19.1875 C0.38087319 19.17245068 -1.05076862 19.1587627 -2.48242188 19.14648438 C-5.98859288 19.1134403 -9.49420254 19.06167167 -13 19 C-13 18.34 -13 17.68 -13 17 C-12.38511719 16.93941406 -11.77023438 16.87882812 -11.13671875 16.81640625 C-10.32847656 16.73261719 -9.52023438 16.64882812 -8.6875 16.5625 C-7.88699219 16.48128906 -7.08648437 16.40007812 -6.26171875 16.31640625 C-3.83912821 16.04734307 -3.83912821 16.04734307 -1 15 C-1.09539062 14.41992188 -1.19078125 13.83984375 -1.2890625 13.2421875 C-1.99906937 8.23911581 -2.07477171 4.75977038 0 0 Z " fill="#BA8373" transform="translate(76,113)"/>
<path d="M0 0 C3.3 0 6.6 0 10 0 C10.09765625 7.71484375 10.09765625 7.71484375 10 10 C9 11 9 11 6.4375 11.0625 C5.633125 11.041875 4.82875 11.02125 4 11 C4.020625 12.11375 4.04125 13.2275 4.0625 14.375 C4 18 4 18 3 20 C1.35 20 -0.3 20 -2 20 C-2.31620422 13.20160929 -1.12676382 6.69016016 0 0 Z " fill="#164DAE" transform="translate(40,69)"/>
<path d="M0 0 C1.0725 0.2475 2.145 0.495 3.25 0.75 C3.25 3.06 3.25 5.37 3.25 7.75 C1.93 7.75 0.61 7.75 -0.75 7.75 C-0.75 6.1 -0.75 4.45 -0.75 2.75 C-1.41 2.75 -2.07 2.75 -2.75 2.75 C-2.729375 3.966875 -2.70875 5.18375 -2.6875 6.4375 C-2.68175884 9.66977322 -2.96233685 12.59934741 -3.75 15.75 C-3.09 15.75 -2.43 15.75 -1.75 15.75 C-1.75 14.1 -1.75 12.45 -1.75 10.75 C-0.1 10.75 1.55 10.75 3.25 10.75 C2.9375 13.625 2.9375 13.625 2.25 16.75 C-0.97373677 18.89915785 -2.01703674 19.13286803 -5.75 18.75 C-8.51315716 15.98684284 -8.08171199 14.22763277 -8.125 10.375 C-8.15335938 9.23289062 -8.18171875 8.09078125 -8.2109375 6.9140625 C-7.75 3.75 -7.75 3.75 -5.9609375 1.3203125 C-3.75 -0.25 -3.75 -0.25 0 0 Z " fill="#F3F0F0" transform="translate(145.75,111.25)"/>
<path d="M0 0 C0.33 0 0.66 0 1 0 C1.66 3.3 2.32 6.6 3 10 C8.94 10.33 14.88 10.66 21 11 C21 11.33 21 11.66 21 12 C15.72 12 10.44 12 5 12 C5 12.66 5 13.32 5 14 C8.96 14 12.92 14 17 14 C17 14.33 17 14.66 17 15 C12.58339099 15.0589002 8.16688531 15.09389517 3.75 15.125 C2.51507813 15.14175781 1.28015625 15.15851563 0.0078125 15.17578125 C-7.87458931 15.21726758 -15.27639057 14.58804858 -23 13 C-22.67 12.34 -22.34 11.68 -22 11 C-15.61427282 9.7093873 -9.38111343 9.9164147 -3 11 C-2.67 10.01 -2.34 9.02 -2 8 C-1.34 8 -0.68 8 0 8 C0 5.36 0 2.72 0 0 Z " fill="#F5BBA2" transform="translate(96,121)"/>
<path d="M0 0 C2.9375 0.4375 2.9375 0.4375 4.9375 2.4375 C5.0625 5.0625 5.0625 5.0625 4.9375 7.4375 C3.6175 7.4375 2.2975 7.4375 0.9375 7.4375 C0.9375 6.1175 0.9375 4.7975 0.9375 3.4375 C-0.0525 3.4375 -1.0425 3.4375 -2.0625 3.4375 C-2.0625 7.3975 -2.0625 11.3575 -2.0625 15.4375 C-1.4025 15.4375 -0.7425 15.4375 -0.0625 15.4375 C-0.0625 13.4575 -0.0625 11.4775 -0.0625 9.4375 C1.2575 9.4375 2.5775 9.4375 3.9375 9.4375 C3.9375 12.4075 3.9375 15.3775 3.9375 18.4375 C-2.99609375 19.31640625 -2.99609375 19.31640625 -5.0625 19.4375 C-6.91540352 17.58459648 -6.27908627 14.67125369 -6.3125 12.1875 C-6.33828125 11.04796875 -6.3640625 9.9084375 -6.390625 8.734375 C-5.91650133 3.97056099 -5.02330445 0.71761492 0 0 Z " fill="#F2EEEE" transform="translate(103.0625,110.5625)"/>
<path d="M0 0 C3 0.25 3 0.25 5 2.25 C5 3.24 5 4.23 5 5.25 C3.68 5.25 2.36 5.25 1 5.25 C1 4.59 1 3.93 1 3.25 C0.34 3.25 -0.32 3.25 -1 3.25 C0.52206009 5.87901288 1.84365964 8.09365964 4 10.25 C4.32954432 13.34771665 4.45334601 15.42331023 2.9375 18.1875 C-0.12469653 19.86676907 -2.69370941 18.93621125 -6 18.25 C-6 16.27 -6 14.29 -6 12.25 C-4.68 12.25 -3.36 12.25 -2 12.25 C-2 13.24 -2 14.23 -2 15.25 C-1.34 15.25 -0.68 15.25 0 15.25 C-0.67638011 12.14184215 -0.67638011 12.14184215 -3.0625 11 C-5 9.25 -5 9.25 -5.375 5.6875 C-4.89981573 1.33164416 -4.41734298 0.36811191 0 0 Z " fill="#F2EDEE" transform="translate(125,110.75)"/>
<path d="M0 0 C2.31 0 4.62 0 7 0 C7 1.32 7 2.64 7 4 C6.01 4 5.02 4 4 4 C4 4.99 4 5.98 4 7 C4.66 7 5.32 7 6 7 C6 8.32 6 9.64 6 11 C5.01 11 4.02 11 3 11 C3 12.32 3 13.64 3 15 C3.99 15 4.98 15 6 15 C6 15.99 6 16.98 6 18 C3.36 18 0.72 18 -2 18 C-1.85805236 15.93722893 -1.71127784 13.87478969 -1.5625 11.8125 C-1.48128906 10.66394531 -1.40007812 9.51539062 -1.31640625 8.33203125 C-1.04596188 5.48401829 -0.62478253 2.78789518 0 0 Z " fill="#F2EEEE" transform="translate(111,111)"/>
<path d="M0 0 C1.65 0 3.3 0 5 0 C5.18451025 10.55808656 5.18451025 10.55808656 4 15 C4.99 15 5.98 15 7 15 C7 16.32 7 17.64 7 19 C4.36 19 1.72 19 -1 19 C-1.02714735 16.77090129 -1.04646254 14.54170633 -1.0625 12.3125 C-1.07990234 10.45044922 -1.07990234 10.45044922 -1.09765625 8.55078125 C-1.01478673 5.53764546 -0.70839449 2.91724661 0 0 Z " fill="#1B51B0" transform="translate(169,69)"/>
<path d="M0 0 C2.31 0 4.62 0 7 0 C7 0.66 7 1.32 7 2 C6.01 2 5.02 2 4 2 C4 3.65 4 5.3 4 7 C4.66 7 5.32 7 6 7 C6 7.99 6 8.98 6 10 C5.01 10 4.02 10 3 10 C3 11.65 3 13.3 3 15 C3.99 15 4.98 15 6 15 C6 15.99 6 16.98 6 18 C3.36 18 0.72 18 -2 18 C-2.02688151 16.35425434 -2.04634123 14.70838587 -2.0625 13.0625 C-2.07410156 12.14597656 -2.08570312 11.22945312 -2.09765625 10.28515625 C-2 8 -2 8 -1 7 C-0.63239269 4.67182036 -0.29758419 2.3381615 0 0 Z " fill="#0B45AA" transform="translate(105,70)"/>
<path d="M0 0 C-1.98 0.99 -1.98 0.99 -4 2 C-2.989375 1.835 -1.97875 1.67 -0.9375 1.5 C5.66441708 0.65237593 12.3568696 0.92215082 19 1 C19 1.33 19 1.66 19 2 C18.16227051 2.08564209 17.32454102 2.17128418 16.46142578 2.25952148 C13.35627571 2.57883319 10.25151363 2.90163045 7.14697266 3.22680664 C5.80271698 3.36688061 4.45831527 3.50556043 3.11376953 3.64282227 C1.18223947 3.84025172 -0.74873469 4.04309615 -2.6796875 4.24609375 C-3.84226074 4.36654053 -5.00483398 4.4869873 -6.20263672 4.61108398 C-8.94811039 4.84081102 -8.94811039 4.84081102 -11 6 C-10.34 6.66 -9.68 7.32 -9 8 C-13.95 9.485 -13.95 9.485 -19 11 C-19 8 -19 8 -17 6 C-17.66 5.67 -18.32 5.34 -19 5 C-13.74484118 1.32138883 -6.37476273 -2.17890273 0 0 Z " fill="#F1AD94" transform="translate(71,101)"/>
<path d="M0 0 C1.98 0 3.96 0 6 0 C6 2.97 6 5.94 6 9 C5.67 8.34 5.34 7.68 5 7 C4.01 7.495 4.01 7.495 3 8 C2.5316735 10.58605332 2.5316735 10.58605332 2.375 13.5625 C2.26285156 15.08037109 2.26285156 15.08037109 2.1484375 16.62890625 C2.09945312 17.41136719 2.05046875 18.19382812 2 19 C0.68 19 -0.64 19 -2 19 C-2.24794402 12.4294834 -1.32388229 6.43028541 0 0 Z " fill="#1049AC" transform="translate(138,69)"/>
<path d="M0 0 C11.22 0 22.44 0 34 0 C34 0.66 34 1.32 34 2 C25.0292723 4.45058068 16.0821363 4.22989644 6.875 4.125 C5.33073499 4.11494704 3.78646362 4.10582529 2.2421875 4.09765625 C-1.50534249 4.07583336 -5.25262946 4.04143206 -9 4 C-9 3.67 -9 3.34 -9 3 C3.375 2.505 3.375 2.505 16 2 C10.72 1.67 5.44 1.34 0 1 C0 0.67 0 0.34 0 0 Z " fill="#EE947A" transform="translate(104,143)"/>
<path d="M0 0 C1.32 0 2.64 0 4 0 C4.2475 0.763125 4.495 1.52625 4.75 2.3125 C6.12786359 5.27490672 7.4282841 6.11407501 10 8 C10 8.99 10 9.98 10 11 C9.34 11 8.68 11 8 11 C8 10.01 8 9.02 8 8 C6.68 8 5.36 8 4 8 C4 9.98 4 11.96 4 14 C6.64 14.33 9.28 14.66 12 15 C11.67 15.66 11.34 16.32 11 17 C5.72 16.67 0.44 16.34 -5 16 C-5 15.67 -5 15.34 -5 15 C-2.69 15 -0.38 15 2 15 C2 13.68 2 12.36 2 11 C1.01 11 0.02 11 -1 11 C-1 9.68 -1 8.36 -1 7 C-0.01 7 0.98 7 2 7 C2 5.68 2 4.36 2 3 C1.34 3 0.68 3 0 3 C0 2.01 0 1.02 0 0 Z " fill="#BA8977" transform="translate(115,115)"/>
<path d="M0 0 C1.98 0 3.96 0 6 0 C5.85946128 2.62538284 5.71281053 5.25017427 5.5625 7.875 C5.52318359 8.62136719 5.48386719 9.36773437 5.44335938 10.13671875 C5.11328125 15.7734375 5.11328125 15.7734375 4 18 C3.01 18 2.02 18 1 18 C1 14.7 1 11.4 1 8 C0.34 8 -0.32 8 -1 8 C-1.125 2.25 -1.125 2.25 0 0 Z " fill="#0B45AA" transform="translate(147,69)"/>
<path d="M0 0 C6.83307722 0.65076926 11.53985818 3.87909643 16 9 C17.00496852 12.01490557 17.10335303 14.04181692 17.0625 17.1875 C17.05347656 18.08855469 17.04445312 18.98960938 17.03515625 19.91796875 C17.02355469 20.60503906 17.01195312 21.29210937 17 22 C16.67 22 16.34 22 16 22 C16 20.02 16 18.04 16 16 C15.34 16 14.68 16 14 16 C13.67 14.35 13.34 12.7 13 11 C12.34 11 11.68 11 11 11 C11 10.01 11 9.02 11 8 C10.319375 7.7525 9.63875 7.505 8.9375 7.25 C5.43134917 5.75802092 2.28379632 3.93164489 -1 2 C-0.67 1.34 -0.34 0.68 0 0 Z " fill="#F7AE90" transform="translate(152,104)"/>
<path d="M0 0 C0.89009766 -0.00128906 1.78019531 -0.00257812 2.69726562 -0.00390625 C3.63376953 -0.00003906 4.57027344 0.00382812 5.53515625 0.0078125 C6.46779297 0.00394531 7.40042969 0.00007813 8.36132812 -0.00390625 C9.25271484 -0.00261719 10.14410156 -0.00132813 11.0625 0 C11.88355225 0.00112793 12.70460449 0.00225586 13.55053711 0.00341797 C15.59765625 0.1328125 15.59765625 0.1328125 17.59765625 1.1328125 C17.26765625 3.4428125 16.93765625 5.7528125 16.59765625 8.1328125 C16.26765625 7.1428125 15.93765625 6.1528125 15.59765625 5.1328125 C14.60765625 4.8028125 13.61765625 4.4728125 12.59765625 4.1328125 C13.25765625 4.1328125 13.91765625 4.1328125 14.59765625 4.1328125 C14.59765625 3.1428125 14.59765625 2.1528125 14.59765625 1.1328125 C11.29765625 1.1328125 7.99765625 1.1328125 4.59765625 1.1328125 C4.59765625 2.1228125 4.59765625 3.1128125 4.59765625 4.1328125 C5.25765625 4.4628125 5.91765625 4.7928125 6.59765625 5.1328125 C4.61765625 5.1328125 2.63765625 5.1328125 0.59765625 5.1328125 C0.59765625 6.1228125 0.59765625 7.1128125 0.59765625 8.1328125 C1.25765625 8.1328125 1.91765625 8.1328125 2.59765625 8.1328125 C2.59765625 9.7828125 2.59765625 11.4328125 2.59765625 13.1328125 C1.60765625 13.1328125 0.61765625 13.1328125 -0.40234375 13.1328125 C-0.40234375 14.1228125 -0.40234375 15.1128125 -0.40234375 16.1328125 C0.58765625 16.1328125 1.57765625 16.1328125 2.59765625 16.1328125 C2.26765625 17.4528125 1.93765625 18.7728125 1.59765625 20.1328125 C1.59765625 19.1428125 1.59765625 18.1528125 1.59765625 17.1328125 C0.60765625 17.1328125 -0.38234375 17.1328125 -1.40234375 17.1328125 C-1.40234375 15.4828125 -1.40234375 13.8328125 -1.40234375 12.1328125 C-0.41234375 12.1328125 0.57765625 12.1328125 1.59765625 12.1328125 C1.59765625 11.1428125 1.59765625 10.1528125 1.59765625 9.1328125 C0.93765625 9.1328125 0.27765625 9.1328125 -0.40234375 9.1328125 C-0.40234375 7.4828125 -0.40234375 5.8328125 -0.40234375 4.1328125 C0.58765625 4.1328125 1.57765625 4.1328125 2.59765625 4.1328125 C2.59765625 3.4728125 2.59765625 2.8128125 2.59765625 2.1328125 C0.28765625 2.1328125 -2.02234375 2.1328125 -4.40234375 2.1328125 C-4.40234375 4.4428125 -4.40234375 6.7528125 -4.40234375 9.1328125 C-4.73234375 9.1328125 -5.06234375 9.1328125 -5.40234375 9.1328125 C-5.5 2.98046875 -5.5 2.98046875 -5.40234375 1.1328125 C-3.81821016 -0.45132109 -2.1925659 0.00301621 0 0 Z " fill="#7394CE" transform="translate(109.40234375,67.8671875)"/>
<path d="M0 0 C0.66 0 1.32 0 2 0 C1.67 5.61 1.34 11.22 1 17 C2.32 17.33 3.64 17.66 5 18 C5.33 18.66 5.66 19.32 6 20 C2.7 20 -0.6 20 -4 20 C-3 16 -3 16 -2 15 C-1.58253392 12.12635209 -1.58253392 12.12635209 -2 9 C-3.9375006 6.81222534 -3.9375006 6.81222534 -6 5 C-6 4.01 -6 3.02 -6 2 C-5.34 2 -4.68 2 -4 2 C-4 2.66 -4 3.32 -4 4 C-2.68 4 -1.36 4 0 4 C0 2.68 0 1.36 0 0 Z " fill="#C49685" transform="translate(130,112)"/>
<path d="M0 0 C1.32 0 2.64 0 4 0 C4.02709444 2.08326131 4.04643873 4.16662441 4.0625 6.25 C4.07410156 7.41015625 4.08570312 8.5703125 4.09765625 9.765625 C4.01782092 12.40977128 3.78643778 14.49826091 3 17 C1.68 17 0.36 17 -1 17 C-1.02721176 15.10424749 -1.04649136 13.20838021 -1.0625 11.3125 C-1.07410156 10.25675781 -1.08570312 9.20101562 -1.09765625 8.11328125 C-1.00865425 5.27589738 -0.64939838 2.7561081 0 0 Z " fill="#F3F0F0" transform="translate(78,112)"/>
<path d="M0 0 C-0.66 0 -1.32 0 -2 0 C-2 5.28 -2 10.56 -2 16 C-3.65 16 -5.3 16 -7 16 C-7.09688221 10.55306686 -7.12862175 5.36095333 -6 0 C-3 -1 -3 -1 0 0 Z " fill="#F4F2F3" transform="translate(91,113)"/>
<path d="M0 0 C-1.98 0.99 -1.98 0.99 -4 2 C8.87 2.495 8.87 2.495 22 3 C22 3.33 22 3.66 22 4 C17.58339099 4.0589002 13.16688531 4.09389517 8.75 4.125 C7.51507813 4.14175781 6.28015625 4.15851563 5.0078125 4.17578125 C-2.87458931 4.21726758 -10.27639057 3.58804858 -18 2 C-17.67 1.34 -17.34 0.68 -17 0 C-11.20447483 -1.35639951 -5.85868765 -0.76622676 0 0 Z " fill="#F3B399" transform="translate(91,132)"/>
<path d="M0 0 C1.44207941 2.88415883 1.09394887 5.41721528 1.0625 8.625 C1.05347656 9.81351563 1.04445312 11.00203125 1.03515625 12.2265625 C1.02355469 13.14179688 1.01195312 14.05703125 1 15 C1.66 15 2.32 15 3 15 C3 15.66 3 16.32 3 17 C5.475 17.99 5.475 17.99 8 19 C8 19.66 8 20.32 8 21 C8.66 21.33 9.32 21.66 10 22 C10 22.66 10 23.32 10 24 C5.49553575 23.24925596 3.29147919 21.61780559 0.625 18.0625 C-2.56111021 12.92468877 -3.0524105 7.91980908 -2 2 C-1.34 1.34 -0.68 0.68 0 0 Z " fill="#D27E62" transform="translate(46,115)"/>
<path d="M0 0 C1.32 0 2.64 0 4 0 C3.67 5.61 3.34 11.22 3 17 C1.68 17 0.36 17 -1 17 C-1.10477512 11.21408489 -0.99250545 5.70690634 0 0 Z " fill="#F5F4F4" transform="translate(132,112)"/>
<path d="M0 0 C-0.33 2.64 -0.66 5.28 -1 8 C-1.33 8 -1.66 8 -2 8 C-2 5.69 -2 3.38 -2 1 C-7.32170494 0.70437633 -7.32170494 0.70437633 -12 3 C-12.33 2.67 -12.66 2.34 -13 2 C-13.66 6.62 -14.32 11.24 -15 16 C-15.33 16 -15.66 16 -16 16 C-16.10251672 10.87416389 -16.03590199 6.05002222 -15 1 C-15.99 0.67 -16.98 0.34 -18 0 C-14.23452768 -3.76547232 -4.19985125 -2.09992562 0 0 Z " fill="#E1C2B2" transform="translate(151,111)"/>
<path d="M0 0 C3.3 0 6.6 0 10 0 C10 5.61 10 11.22 10 17 C9.67 17 9.34 17 9 17 C8.9175 15.88625 8.835 14.7725 8.75 13.625 C8.42126213 9.94246056 8.42126213 9.94246056 5.9375 8.5625 C5.298125 8.376875 4.65875 8.19125 4 8 C3.957279 6.33388095 3.95936168 4.66617115 4 3 C4.33 2.67 4.66 2.34 5 2 C3.35 1.67 1.7 1.34 0 1 C0 0.67 0 0.34 0 0 Z " fill="#E3D3D0" transform="translate(65,111)"/>
<path d="M0 0 C1.50110321 0.00022659 1.50110321 0.00022659 3.03253174 0.00045776 C4.10557556 0.01078033 5.17861938 0.02110291 6.28417969 0.03173828 C7.38832214 0.03456818 8.4924646 0.03739807 9.63006592 0.04031372 C13.15550589 0.05150589 16.68069154 0.07660903 20.20605469 0.10205078 C22.59667602 0.11208181 24.98730133 0.12120745 27.37792969 0.12939453 C33.23739142 0.15144209 39.09670488 0.18491025 44.95605469 0.22705078 C44.95605469 0.55705078 44.95605469 0.88705078 44.95605469 1.22705078 C44.09827927 1.24251198 44.09827927 1.24251198 43.22317505 1.25828552 C37.28619683 1.36623393 31.34937398 1.4808412 25.41259766 1.59936523 C23.19518272 1.64275156 20.97773357 1.68442386 18.76025391 1.72436523 C15.57801996 1.78197832 12.39595885 1.84569843 9.21386719 1.91064453 C8.21799591 1.92735703 7.22212463 1.94406952 6.19607544 1.96128845 C5.27527191 1.98123367 4.35446838 2.00117889 3.40576172 2.02172852 C2.18664597 2.04504494 2.18664597 2.04504494 0.94290161 2.0688324 C-1.11832798 2.10807492 -1.11832798 2.10807492 -3.04394531 3.22705078 C-5.05194987 2.94593014 -7.05408582 2.61637112 -9.04394531 2.22705078 C-5.89966771 0.38722179 -3.62525742 -0.01830938 0 0 Z " fill="#F1A589" transform="translate(84.0439453125,97.77294921875)"/>
<path d="M0 0 C1.32 0 2.64 0 4 0 C4.36263859 5.8022175 3.25684543 9.63999211 1 15 C2.65 15 4.3 15 6 15 C6.33 14.01 6.66 13.02 7 12 C7 13.32 7 14.64 7 16 C4.66705225 16.04241723 2.33297433 16.04092937 0 16 C-0.33 15.67 -0.66 15.34 -1 15 C-0.90913549 12.46458702 -0.7629055 9.96445216 -0.5625 7.4375 C-0.51029297 6.72658203 -0.45808594 6.01566406 -0.40429688 5.28320312 C-0.27425893 3.52178001 -0.13773103 1.76083827 0 0 Z " fill="#CCD7ED" transform="translate(121,73)"/>
<path d="M0 0 C1.98 0 3.96 0 6 0 C5.22095672 10.55808656 5.22095672 10.55808656 3 15 C2.67 13.68 2.34 12.36 2 11 C1.01 11 0.02 11 -1 11 C-1 10.01 -1 9.02 -1 8 C-0.01 8 0.98 8 2 8 C2 6.35 2 4.7 2 3 C1.34 3 0.68 3 0 3 C0 2.01 0 1.02 0 0 Z " fill="#F6F7FB" transform="translate(110,73)"/>
<path d="M0 0 C2.93756119 -0.0269501 5.87487555 -0.04681474 8.8125 -0.0625 C9.64587891 -0.07087891 10.47925781 -0.07925781 11.33789062 -0.08789062 C12.14033203 -0.09111328 12.94277344 -0.09433594 13.76953125 -0.09765625 C14.87711792 -0.10551147 14.87711792 -0.10551147 16.00708008 -0.11352539 C18 0 18 0 21 1 C21 5.29 21 9.58 21 14 C20.67 14 20.34 14 20 14 C19.80083984 12.82630859 19.80083984 12.82630859 19.59765625 11.62890625 C19.33275391 10.11103516 19.33275391 10.11103516 19.0625 8.5625 C18.88847656 7.55316406 18.71445313 6.54382813 18.53515625 5.50390625 C18.25248903 3.0712562 18.25248903 3.0712562 17 2 C14.0842309 1.58297878 14.0842309 1.58297878 11 2 C9.22590192 3.92022703 9.22590192 3.92022703 8 6 C7.34 6 6.68 6 6 6 C5.7525 5.38125 5.505 4.7625 5.25 4.125 C3.77952822 1.62519797 2.58596924 1.16683978 0 0 Z " fill="#D3A594" transform="translate(89,110)"/>
<path d="M0 0 C1.45606519 4.52092968 0.27032841 7.51648796 -1 12 C0.32 12 1.64 12 3 12 C3.33 11.01 3.66 10.02 4 9 C4 10.32 4 11.64 4 13 C0.04 13 -3.92 13 -8 13 C-8.33 10.03 -8.66 7.06 -9 4 C-8.34 4 -7.68 4 -7 4 C-7 6.64 -7 9.28 -7 12 C-5.68 12 -4.36 12 -3 12 C-3 8.37 -3 4.74 -3 1 C-2.34 1.66 -1.68 2.32 -1 3 C-0.67 2.01 -0.34 1.02 0 0 Z " fill="#9DB4DD" transform="translate(77,76)"/>
<path d="M0 0 C0.66 0 1.32 0 2 0 C2 1.65 2 3.3 2 5 C3.65 5 5.3 5 7 5 C7 5.33 7 5.66 7 6 C5.35 6.33 3.7 6.66 2 7 C3.98 7.66 5.96 8.32 8 9 C8 11.31 8 13.62 8 16 C10.64 16 13.28 16 16 16 C16 16.33 16 16.66 16 17 C13.03 17 10.06 17 7 17 C6.67 14.36 6.34 11.72 6 9 C4.35 9 2.7 9 1 9 C1 10.32 1 11.64 1 13 C0.34 13 -0.32 13 -1 13 C-0.67 8.71 -0.34 4.42 0 0 Z " fill="#B5C5E5" transform="translate(95,72)"/>
<path d="M0 0 C1.12481094 3.37443282 1.09847725 5.95024509 1.0625 9.5 C1.05347656 10.6446875 1.04445312 11.789375 1.03515625 12.96875 C1.02355469 13.9690625 1.01195312 14.969375 1 16 C1 16.99 1 17.98 1 19 C-1.64 19 -4.28 19 -7 19 C-5.68 18.67 -4.36 18.34 -3 18 C-2.86722656 16.78441406 -2.73445312 15.56882812 -2.59765625 14.31640625 C-2.41949909 12.73174516 -2.24110125 11.1471111 -2.0625 9.5625 C-1.93198242 8.35883789 -1.93198242 8.35883789 -1.79882812 7.13085938 C-1.11328125 1.11328125 -1.11328125 1.11328125 0 0 Z " fill="#B78775" transform="translate(138,112)"/>
<path d="M0 0 C0 0.33 0 0.66 0 1 C-1.670625 1.2784375 -1.670625 1.2784375 -3.375 1.5625 C-4.57125 2.036875 -5.7675 2.51125 -7 3 C-8.54086322 6.51400668 -8.54086322 6.51400668 -9 10 C-10.5 8.75 -10.5 8.75 -12 7 C-12 5.68 -12 4.36 -12 3 C-13.65 2.67 -15.3 2.34 -17 2 C-17 1.67 -17 1.34 -17 1 C-5.47835991 -0.14806378 -5.47835991 -0.14806378 0 0 Z " fill="#E1B6A7" transform="translate(94,109)"/>
<path d="M0 0 C1.65 0 3.3 0 5 0 C4.6875 2.875 4.6875 2.875 4 6 C0.77208445 8.1519437 -0.28400809 8.20086443 -4 8 C-3.34 7.01 -2.68 6.02 -2 5 C-1.34 5 -0.68 5 0 5 C0 3.35 0 1.7 0 0 Z " fill="#EDE5E3" transform="translate(144,122)"/>
<path d="M0 0 C0.33 0 0.66 0 1 0 C1.66 3.3 2.32 6.6 3 10 C8.94 10.33 14.88 10.66 21 11 C21 11.33 21 11.66 21 12 C17.93726169 12.05410136 14.87548548 12.09372225 11.8125 12.125 C10.51602539 12.15013672 10.51602539 12.15013672 9.19335938 12.17578125 C4.67791897 12.21038233 1.09918517 12.15567916 -3 10 C-2.67 9.34 -2.34 8.68 -2 8 C-1.34 8 -0.68 8 0 8 C0 5.36 0 2.72 0 0 Z " fill="#EAB59C" transform="translate(96,121)"/>
<path d="M0 0 C0.33 0 0.66 0 1 0 C2.04559253 6.58723293 1.83292414 11.59233959 0 18 C1.32 18 2.64 18 4 18 C4.33 17.01 4.66 16.02 5 15 C5 16.32 5 17.64 5 19 C3.02 19 1.04 19 -1 19 C-1 16.36 -1 13.72 -1 11 C-2.65 11 -4.3 11 -6 11 C-6 10.67 -6 10.34 -6 10 C-4.35 9.67 -2.7 9.34 -1 9 C-0.67 6.03 -0.34 3.06 0 0 Z " fill="#94ADD9" transform="translate(50,70)"/>
<path d="M0 0 C0.33 0.66 0.66 1.32 1 2 C1.66 2 2.32 2 3 2 C3 4.97 3 7.94 3 11 C1.68 11 0.36 11 -1 11 C-1.02688151 9.35425434 -1.04634123 7.70838587 -1.0625 6.0625 C-1.07410156 5.14597656 -1.08570312 4.22945313 -1.09765625 3.28515625 C-1 1 -1 1 0 0 Z " fill="#0943AA" transform="translate(71,77)"/>
<path d="M0 0 C1.32 0 2.64 0 4 0 C4 2.97 4 5.94 4 9 C2.68 8.67 1.36 8.34 0 8 C0 5.36 0 2.72 0 0 Z " fill="#F6F5F6" transform="translate(103,120)"/>
<path d="M0 0 C2.31 0 4.62 0 7 0 C7.77313045 5.9114744 8.14819277 11.1314592 7 17 C6.34 17 5.68 17 5 17 C5.33 11.72 5.66 6.44 6 1 C4.02 1 2.04 1 0 1 C0 0.67 0 0.34 0 0 Z " fill="#B1C3E3" transform="translate(147,68)"/>
<path d="M0 0 C-3.06655255 2.04436837 -4.87109668 2.54390211 -8.4375 3.1875 C-9.38496094 3.36667969 -10.33242187 3.54585938 -11.30859375 3.73046875 C-13.89211739 3.98919608 -15.56054763 3.81315079 -18 3 C-11.75690073 0.22528921 -6.80203375 -0.37634203 0 0 Z " fill="#EF9C7E" transform="translate(81,100)"/>
<path d="M0 0 C1.67542976 0.28604898 3.34385343 0.61781233 5 1 C5 3.31 5 5.62 5 8 C3.68 8 2.36 8 1 8 C1 6.02 1 4.04 1 2 C0.34 1.67 -0.32 1.34 -1 1 C-0.67 0.67 -0.34 0.34 0 0 Z " fill="#1149AC" transform="translate(97,69)"/>
<path d="M0 0 C-3.465 1.485 -3.465 1.485 -7 3 C-7 2.34 -7 1.68 -7 1 C-12.94 1 -18.88 1 -25 1 C-25 0.67 -25 0.34 -25 0 C-21.58382503 -0.1972935 -18.16705407 -0.38112295 -14.75 -0.5625 C-13.29787109 -0.64661133 -13.29787109 -0.64661133 -11.81640625 -0.73242188 C-10.88183594 -0.78076172 -9.94726562 -0.82910156 -8.984375 -0.87890625 C-8.12553711 -0.9260376 -7.26669922 -0.97316895 -6.38183594 -1.02172852 C-4.07335735 -1.00066921 -2.20243733 -0.66206871 0 0 Z " fill="#F5A182" transform="translate(158,139)"/>
<path d="M0 0 C0 0.99 0 1.98 0 3 C-0.66 3 -1.32 3 -2 3 C-2 3.99 -2 4.98 -2 6 C-1.34 6.33 -0.68 6.66 0 7 C-0.928125 6.95875 -1.85625 6.9175 -2.8125 6.875 C-6.15809719 6.72863661 -6.15809719 6.72863661 -9 9 C-7.55536047 5.62917442 -5.75336875 3.41962708 -3 1 C-2.01 0.67 -1.02 0.34 0 0 Z " fill="#E69B80" transform="translate(54,106)"/>
<path d="M0 0 C0.33 0.66 0.66 1.32 1 2 C2.64363134 2.72159424 4.31050386 3.39351421 6 4 C6 4.66 6 5.32 6 6 C6.66 6.33 7.32 6.66 8 7 C8 7.66 8 8.32 8 9 C2.25 7.375 2.25 7.375 0 4 C0 2.68 0 1.36 0 0 Z " fill="#D5846A" transform="translate(48,130)"/>
<path d="M0 0 C0.66 0 1.32 0 2 0 C2.1875 2.375 2.1875 2.375 2 5 C-1 7 -1 7 -3.1875 6.625 C-3.785625 6.41875 -4.38375 6.2125 -5 6 C-5.33 4.68 -5.66 3.36 -6 2 C-5.34 2 -4.68 2 -4 2 C-4 2.66 -4 3.32 -4 4 C-2.68 4 -1.36 4 0 4 C0 2.68 0 1.36 0 0 Z " fill="#B68979" transform="translate(130,112)"/>
<path d="M0 0 C0.33 0 0.66 0 1 0 C1.02709444 2.08326131 1.04643873 4.16662441 1.0625 6.25 C1.07410156 7.41015625 1.08570312 8.5703125 1.09765625 9.765625 C1.01782092 12.40977128 0.78643778 14.49826091 0 17 C-0.66 17 -1.32 17 -2 17 C-2.3690205 5.47835991 -2.3690205 5.47835991 0 0 Z " fill="#AF7767" transform="translate(76,113)"/>
<path d="M0 0 C1.77226453 0.28284018 3.542788 0.57660498 5.3125 0.875 C6.29863281 1.03742188 7.28476563 1.19984375 8.30078125 1.3671875 C11 2 11 2 14 4 C4.58997722 4.3690205 4.58997722 4.3690205 0 2 C0 1.34 0 0.68 0 0 Z " fill="#D47052" transform="translate(61,139)"/>
<path d="M0 0 C0.33 0 0.66 0 1 0 C1 2.64 1 5.28 1 8 C1.99 8 2.98 8 4 8 C4.33 7.34 4.66 6.68 5 6 C4.67 7.32 4.34 8.64 4 10 C1.03 9.505 1.03 9.505 -2 9 C-1.34 6.03 -0.68 3.06 0 0 Z " fill="#7A99D1" transform="translate(147,79)"/>
<path d="M0 0 C1.45606519 4.52092968 0.27032841 7.51648796 -1 12 C-3.67927341 7.98108988 -3.15601248 5.75838077 -3 1 C-2.34 1.66 -1.68 2.32 -1 3 C-0.67 2.01 -0.34 1.02 0 0 Z " fill="#809ED3" transform="translate(77,76)"/>
<path d="M0 0 C2.97 0 5.94 0 9 0 C10.15941038 3.47823115 9.70820884 5.45895578 9 9 C7.23537317 5.91190305 7 4.76687864 7 1 C4.69 1 2.38 1 0 1 C0 0.67 0 0.34 0 0 Z " fill="#D3A795" transform="translate(111,110)"/>
<path d="M0 0 C0.66 0 1.32 0 2 0 C4.21538462 6.4 4.21538462 6.4 3.125 9.4375 C2.75375 9.953125 2.3825 10.46875 2 11 C1.67 11 1.34 11 1 11 C0.67 7.37 0.34 3.74 0 0 Z " fill="#C8D4EB" transform="translate(74,69)"/>
<path d="M0 0 C0.66 0.66 1.32 1.32 2 2 C1.01 2.33 0.02 2.66 -1 3 C-1.33 2.67 -1.66 2.34 -2 2 C-4.33297433 1.95907063 -6.66705225 1.95758277 -9 2 C-9.33 1.34 -9.66 0.68 -10 0 C-6.4195345 -1.2393919 -3.65498696 -0.87401862 0 0 Z " fill="#E5B7A1" transform="translate(130,110)"/>
<path d="M0 0 C0.33 0 0.66 0 1 0 C1.66 3.63 2.32 7.26 3 11 C0.03 10.505 0.03 10.505 -3 10 C-2.67 9.34 -2.34 8.68 -2 8 C-1.34 8 -0.68 8 0 8 C0 5.36 0 2.72 0 0 Z " fill="#D6AC9E" transform="translate(96,121)"/>
<path d="M0 0 C0.61875 0.28875 1.2375 0.5775 1.875 0.875 C2.205 1.865 2.535 2.855 2.875 3.875 C0.235 3.545 -2.405 3.215 -5.125 2.875 C-2.69803371 -0.15870787 -2.69803371 -0.15870787 0 0 Z " fill="#F6B8A1" transform="translate(64.125,105.125)"/>
<path d="M0 0 C-0.66 0.66 -1.32 1.32 -2 2 C-1.67 2.33 -1.34 2.66 -1 3 C-0.95919217 4.99958364 -0.95745644 7.00045254 -1 9 C-1.33 9 -1.66 9 -2 9 C-2 7.35 -2 5.7 -2 4 C-2.66 4 -3.32 4 -4 4 C-4 3.34 -4 2.68 -4 2 C-4.99 1.67 -5.98 1.34 -7 1 C-4.53721199 -0.231394 -2.7204945 -0.07159196 0 0 Z " fill="#3F6CBC" transform="translate(99,68)"/>
<path d="M0 0 C0.99 0 1.98 0 3 0 C3 1.98 3 3.96 3 6 C2.01 6 1.02 6 0 6 C0 4.02 0 2.04 0 0 Z " fill="#6B8ECB" transform="translate(44,72)"/>
<path d="M0 0 C1.32 0 2.64 0 4 0 C4.33 1.98 4.66 3.96 5 6 C4.34 6 3.68 6 3 6 C3 5.01 3 4.02 3 3 C2.01 3 1.02 3 0 3 C0 2.01 0 1.02 0 0 Z " fill="#B17965" transform="translate(115,115)"/>
<path d="M0 0 C1.65 0 3.3 0 5 0 C5.33 1.32 5.66 2.64 6 4 C4.68 4 3.36 4 2 4 C2 3.01 2 2.02 2 1 C1.34 0.67 0.68 0.34 0 0 Z " fill="#F6F4F5" transform="translate(124,112)"/>
<path d="M0 0 C-4.73778043 2.36889021 -6.63970918 3.04875255 -12 2 C-8.09971775 -0.60018816 -4.52565431 -0.15085514 0 0 Z " fill="#F1B8A2" transform="translate(87,98)"/>
</svg>
