<?xml version="1.0" encoding="UTF-8"?>
<svg version="1.1" xmlns="http://www.w3.org/2000/svg" width="3508" height="3508">
<path d="M0 0 C2.13011279 0.67224358 4.2644344 1.33120676 6.40136719 1.98144531 C47.66270334 14.56843688 86.59462943 35.86651391 121.15966797 61.59667969 C123.24155393 63.1373426 125.3406648 64.65293344 127.44091797 66.16845703 C138.29554055 74.03407749 148.73190125 82.29104977 158.97216797 90.93798828 C160.17527526 91.94451986 161.3783996 92.95103107 162.58154297 93.95751953 C176.02472095 105.27102903 188.59765671 117.47660079 201.03466797 129.87548828 C201.77437332 130.61117538 201.77437332 130.61117538 202.52902222 131.36172485 C208.23006976 137.03921681 213.77402104 142.79262713 218.97216797 148.93798828 C219.96007285 150.09325815 220.94834703 151.24821233 221.93701172 152.40283203 C222.65969238 153.2482959 222.65969238 153.2482959 223.39697266 154.11083984 C228.84389495 160.46499645 234.45233403 166.62554037 240.22216797 172.68798828 C245.32984884 178.06048073 250.22632427 183.46817169 254.83935547 189.27392578 C256.84593787 191.78031625 258.90665991 194.22476173 260.99560547 196.66210938 C266.90781449 203.56445009 272.52696064 210.66195057 277.97216797 217.93798828 C278.75116455 218.97802002 278.75116455 218.97802002 279.54589844 220.0390625 C304.63655819 253.62758074 326.98678888 288.52520282 345.97216797 325.93798828 C346.35598633 326.69047852 346.73980469 327.44296875 347.13525391 328.21826172 C349.45510821 332.77189429 351.72720211 337.34703904 353.97216797 341.93798828 C354.43453857 342.87360596 354.43453857 342.87360596 354.90625 343.828125 C395.53525484 426.32495188 414.86139116 520.60323537 376.64868164 802.86938477 C374.24321856 810.03399391 371.93768733 817.21795693 369.73999023 824.44897461 C365.583406 838.11356916 361.1494646 851.62286321 355.97216797 864.93798828 C355.62138184 865.84162109 355.2705957 866.74525391 354.90917969 867.67626953 C334.90719394 918.59365202 306.98454362 965.91144722 271.97216797 1007.93798828 C271.54822754 1008.4482959 271.12428711 1008.95860352 270.6875 1009.484375 C264.48751438 1016.93477789 258.11362344 1024.196032 251.50683594 1031.29003906 C249.80598153 1033.11644174 248.10986055 1034.94718638 246.41357422 1036.77783203 C245.18340595 1038.10232992 243.95294072 1039.42655207 242.72216797 1040.75048828 C241.87271606 1041.66580322 241.87271606 1041.66580322 241.00610352 1042.59960938 C235.38251771 1048.62903787 229.64515159 1054.41850237 223.39404297 1059.79736328 C220.87662647 1062.02243463 218.42593468 1064.30735928 215.97705078 1066.60717773 C210.46304667 1071.78266762 204.8927347 1076.7890349 198.98388672 1081.51611328 C196.69318898 1083.35817891 194.43040535 1085.22056767 192.17919922 1087.10986328 C165.39448433 1109.53972622 136.14709032 1129.35231408 105.97216797 1146.93798828 C105.23015137 1147.37401367 104.48813477 1147.81003906 103.72363281 1148.25927734 C27.35389613 1193.05082048 -57.27279134 1221.35366146 -160.02783203 1241.93798828 C-160.74251648 1242.07422607 -161.45720093 1242.21046387 -162.19354248 1242.35083008 C-253.52435534 1259.73322203 -346.88902079 1265.72674083 -478.02783203 1268.93798828 C-478.70705719 1268.9451033 -479.38628235 1268.95221832 -480.08609009 1268.95954895 C-557.44451 1269.75685907 -557.44451 1269.75685907 -587.02783203 1265.93798828 C-587.71639282 1265.85077515 -588.40495361 1265.76356201 -589.11437988 1265.67370605 C-666.04244486 1255.88797459 -753.8559869 1231.63874585 -805.02783203 1168.93798828 C-808.24299134 1164.7461035 -811.16020907 1160.37436969 -814.02783203 1155.93798828 C-814.58212891 1155.09623047 -815.13642578 1154.25447266 -815.70751953 1153.38720703 C-832.08463582 1127.4638442 -835.494166 1096.48094266 -829.02783203 1066.93798828 C-821.85578246 1038.70931305 -805.68132544 1014.05299393 -786.02783203 992.93798828 C-784.94042837 991.67063602 -783.8569761 990.39988091 -782.77783203 989.12548828 C-775.16625341 980.42150717 -766.89799923 972.3610453 -757.83642578 965.18017578 C-755.25745981 963.12130726 -752.74635953 961.00630674 -750.24365234 958.85668945 C-740.94716238 950.87944445 -731.14674871 943.70172268 -721.13720703 936.65283203 C-719.96327393 935.82519348 -719.96327393 935.82519348 -718.765625 934.98083496 C-716.85335305 933.63275622 -714.94074903 932.28515147 -713.02783203 930.93798828 C-739.55880665 836.09281058 -767.60233802 739.10187801 -810.02783203 649.93798828 C-810.69830566 648.52114746 -810.69830566 648.52114746 -811.38232422 647.07568359 C-819.61627867 629.78378645 -829.04016031 613.72136555 -840.89501953 598.66455078 C-845.69348107 592.53025379 -849.02783203 587.90516708 -849.02783203 579.93798828 C-847.79862274 574.22324333 -845.17572908 569.99161494 -841.02783203 565.93798828 C-835.83868588 563.30603525 -831.18789633 562.30385991 -825.43798828 561.69189453 C-824.62521927 561.59618668 -823.81245026 561.50047882 -822.97505188 561.40187073 C-821.24328727 561.19844945 -819.51100035 560.99943324 -817.77825928 560.80450439 C-813.23717387 560.29088814 -808.7011356 559.73581919 -804.16455078 559.18408203 C-802.82858856 559.02256653 -802.82858856 559.02256653 -801.46563721 558.85778809 C-773.85368371 555.49868218 -746.45986469 549.65205069 -720.02783203 540.93798828 C-718.93116211 540.57833984 -717.83449219 540.21869141 -716.70458984 539.84814453 C-700.82315831 534.60163858 -685.22789662 528.94383623 -670.02783203 521.93798828 C-669.04363281 521.48697754 -668.05943359 521.0359668 -667.04541016 520.57128906 C-652.26473916 513.75565486 -637.96894562 506.33896715 -624.02783203 497.93798828 C-623.22152344 497.45362305 -622.41521484 496.96925781 -621.58447266 496.47021484 C-609.20932353 488.98209914 -597.52372625 480.7076761 -586.02783203 471.93798828 C-585.38475098 471.44943359 -584.74166992 470.96087891 -584.07910156 470.45751953 C-574.7335609 463.33045301 -565.80382861 455.75275851 -557.02783203 447.93798828 C-556.48835938 447.4578125 -555.94888672 446.97763672 -555.39306641 446.48291016 C-548.26635743 440.10170996 -541.43086624 433.43703588 -534.65283203 426.68798828 C-533.52880981 425.57097534 -533.52880981 425.57097534 -532.38208008 424.43139648 C-527.72553216 419.76135283 -523.32503716 414.9383491 -519.02783203 409.93798828 C-518.00618852 408.78145314 -516.98279771 407.62645874 -515.95751953 406.47314453 C-508.45947569 397.97690157 -501.44102335 389.20484623 -494.66503906 380.12402344 C-493.06892019 377.99285011 -491.45440576 375.87680942 -489.83642578 373.76220703 C-475.1011762 354.33016542 -462.02102139 333.62742099 -449.34033203 312.81298828 C-429.77671053 280.74028538 -429.77671053 280.74028538 -417.02783203 276.93798828 C-409.88599964 276.03412001 -404.49918128 277.52555668 -398.53076172 281.67333984 C-389.93212246 289.4533806 -386.06435913 304.88716949 -381.86334229 315.45806885 C-380.00718741 320.12606091 -378.12933909 324.78533169 -376.25439453 329.44580078 C-375.8868808 330.36066254 -375.51936707 331.27552429 -375.14071655 332.21810913 C-367.3081869 351.69838331 -359.01150801 370.95925036 -350.02783203 389.93798828 C-349.5847168 390.87626465 -349.14160156 391.81454102 -348.68505859 392.78125 C-343.73189247 403.18868781 -338.42456796 413.29316396 -332.40283203 423.12548828 C-331.90090332 423.95008545 -331.39897461 424.77468262 -330.88183594 425.62426758 C-323.97428851 436.63212983 -315.35108986 445.94170332 -306.15283203 455.06298828 C-305.23630859 455.98724609 -304.31978516 456.91150391 -303.37548828 457.86376953 C-297.23555478 463.98643177 -290.81779981 469.55175368 -284.02783203 474.93798828 C-282.71494819 476.01014589 -281.40355116 477.084129 -280.09423828 478.16064453 C-278.9266792 479.10776436 -277.75872351 480.05439552 -276.59033203 481.00048828 C-276.02507812 481.46519531 -275.45982422 481.92990234 -274.87744141 482.40869141 C-217.57890141 528.66172971 -144.22983431 547.94506114 -72.87548828 558.27783203 C-71.75454018 558.44169655 -71.75454018 558.44169655 -70.61094666 558.60887146 C-67.05851119 559.12767007 -63.50544864 559.63484725 -59.94750977 560.11450195 C-40.22400642 562.92715168 -40.22400642 562.92715168 -34.96533203 568.87548828 C-31.35124657 574.58807498 -30.11793988 579.19804643 -31.02783203 585.93798828 C-32.37632915 590.0782389 -33.881095 593.06844265 -37.38720703 595.72705078 C-40.58383331 598.40351598 -42.49424888 601.45984834 -44.59033203 605.00048828 C-45.47197744 606.45692458 -46.35483934 607.91262502 -47.23876953 609.36767578 C-47.92471191 610.50221191 -47.92471191 610.50221191 -48.62451172 611.65966797 C-49.98363154 613.86622785 -51.3879406 616.03394783 -52.81689453 618.19580078 C-59.03591966 627.65401176 -64.55954435 637.40104639 -69.77783203 647.43798828 C-70.37942139 648.5874292 -70.98101074 649.73687012 -71.60083008 650.92114258 C-79.67898314 666.68331166 -86.01161966 683.08592124 -91.77783203 699.81298828 C-92.073974 700.66659943 -92.37011597 701.52021057 -92.67523193 702.39968872 C-103.74187867 734.30279648 -113.83133367 766.44657531 -123.02783203 798.93798828 C-123.38847748 800.21138062 -123.38847748 800.21138062 -123.75640869 801.51049805 C-130.37319473 824.92142094 -136.50023571 848.45326674 -142.41399765 872.05053329 C-142.8923811 873.95879964 -143.3717925 875.86680819 -143.85122681 877.77481079 C-147.95433934 894.13234466 -147.95433934 894.13234466 -151.70068359 910.57421875 C-151.96809357 911.80941757 -152.23550354 913.04461639 -152.51101685 914.31724548 C-153.01420749 916.66670748 -153.50890218 919.01801098 -153.99362183 921.37135315 C-154.21776764 922.42386765 -154.44191345 923.47638214 -154.67285156 924.56079102 C-154.86315948 925.48157944 -155.05346741 926.40236786 -155.24954224 927.35105896 C-157.02051047 933.23751626 -160.26607273 936.36666881 -165.02783203 939.93798828 C-168.60528154 941.13047145 -171.41092106 941.0057495 -175.18530273 940.95166016 C-183.64933664 940.88443472 -192.05904689 941.23728286 -200.50830078 941.71923828 C-201.28270193 941.76211472 -202.05710308 941.80499115 -202.85497093 941.84916687 C-226.08154364 943.14010213 -249.27578279 944.93693979 -272.47241211 946.67230225 C-348.07883066 952.32802829 -348.07883066 952.32802829 -385.25195312 952.19873047 C-388.95735461 952.18782786 -392.66228681 952.19884382 -396.36767578 952.21142578 C-467.99115403 952.25550195 -467.99115403 952.25550195 -490.23486328 931.96533203 C-495.90476421 925.55426758 -498.39786819 917.6484155 -498.23876953 909.16845703 C-497.00212295 896.09206444 -489.13281175 886.61291186 -480.41845703 877.50439453 C-477.94249416 874.98466077 -477.94249416 874.98466077 -476.02783203 871.93798828 C-516.75170041 886.72323359 -556.62591886 903.63917535 -596.39756775 920.79231262 C-608.07540936 925.82628642 -619.7725454 930.81488029 -631.47207642 935.79818726 C-634.92365339 937.26860674 -638.37457035 938.74056668 -641.82543945 940.21264648 C-642.90427902 940.6722023 -643.98311859 941.13175812 -645.09465027 941.60523987 C-647.19144497 942.49857353 -649.287662 943.39326446 -651.383255 944.28941345 C-655.91539339 946.22120155 -660.45126281 948.12280776 -665.04345703 949.90771484 C-672.03218186 952.63359157 -678.28937161 955.27399001 -684.04541016 960.23242188 C-686.14108108 962.03542152 -688.31301143 963.5708843 -690.60595703 965.11376953 C-691.36779297 965.62649414 -692.12962891 966.13921875 -692.91455078 966.66748047 C-693.69443359 967.18987305 -694.47431641 967.71226563 -695.27783203 968.25048828 C-703.09648391 973.5472895 -710.64991851 979.04162343 -718.02783203 984.93798828 C-718.92244141 985.65083984 -719.81705078 986.36369141 -720.73876953 987.09814453 C-736.14901848 999.54836033 -750.73486632 1012.31918595 -763.02783203 1027.93798828 C-763.84251953 1028.93572266 -764.65720703 1029.93345703 -765.49658203 1030.96142578 C-782.97382804 1052.62807543 -792.99127922 1076.86837182 -791.02783203 1104.93798828 C-787.93914105 1128.44812751 -771.11201904 1149.43072204 -752.98876953 1163.69580078 C-752.01166016 1164.43572266 -751.03455078 1165.17564453 -750.02783203 1165.93798828 C-749.50737305 1166.3334082 -748.98691406 1166.72882813 -748.45068359 1167.13623047 C-698.53350171 1204.76059768 -634.36037467 1220.0035313 -573.27783203 1226.68798828 C-572.22160645 1226.80360107 -571.16538086 1226.91921387 -570.07714844 1227.03833008 C-554.00345505 1228.67452224 -537.92386561 1229.11357955 -521.77783203 1229.06298828 C-520.42689957 1229.06066193 -520.42689957 1229.06066193 -519.04867554 1229.05828857 C-411.76105927 1228.84733662 -303.87373596 1224.40031657 -190.35540771 1206.31665039 C-188.11072073 1205.95147305 -185.8632638 1205.62127144 -183.61230469 1205.29736328 C-174.586103 1203.92178262 -167.70851308 1201.23370983 -160.02783203 1196.31298828 C-157.9399099 1195.0346321 -155.8513685 1193.75728681 -153.76220703 1192.48095703 C-152.7715625 1191.86526855 -151.78091797 1191.24958008 -150.76025391 1190.61523438 C-147.32361477 1188.50571768 -143.81706187 1186.55541006 -140.27783203 1184.62548828 C-100.28585787 1162.35181261 -62.16550903 1136.26302422 -27.02783203 1106.93798828 C-26.02880859 1106.11298828 -25.02978516 1105.28798828 -24.00048828 1104.43798828 C-11.38776857 1093.95993706 0.36059107 1082.63211339 11.97216797 1071.06298828 C12.85646484 1070.18336426 13.74076172 1069.30374023 14.65185547 1068.39746094 C71.08600881 1011.82393754 108.0324618 931.61616159 133.97216797 856.93798828 C134.42235265 855.6642591 134.87337154 854.39082446 135.32519531 853.11767578 C159.65210731 784.42159399 172.23773818 711.55568998 172.15966797 638.68798828 C172.1587616 637.11194321 172.1587616 637.11194321 172.15783691 635.50405884 C172.13050476 617.90264955 171.644104 600.47060009 169.97216797 582.93798828 C169.90900391 582.27013306 169.84583984 581.60227783 169.78076172 580.91418457 C162.07103281 500.08958171 139.89033872 423.09567987 87.12402344 308.06542969 C85.93184193 305.86350734 84.77771507 303.64505121 83.63232422 301.41845703 C77.20988365 288.95260087 70.23963773 276.83246305 63.06777954 264.78393555 C62.27984114 263.45637314 61.49485308 262.12705801 60.71176147 260.79663086 C53.43814483 248.44061942 45.80372593 236.38144271 37.81811523 224.47363281 C36.0332379 221.81085483 34.25711747 219.14239199 32.48193359 216.47314453 C21.3787115 199.82820595 9.68285242 183.6884075 -2.54931641 167.85742188 C-3.89915191 166.10504296 -5.23932455 164.34592278 -6.57470703 162.58251953 C-16.48954591 149.54094225 -27.03638286 136.99830885 -37.66699219 124.53710938 C-39.07761505 122.87948832 -40.48070992 121.21569 -41.88330078 119.55126953 C-47.70111919 112.67373217 -53.68078195 105.9856534 -59.86889648 99.43847656 C-63.02561716 96.09794683 -66.12309041 92.71632867 -69.17724609 89.28149414 C-73.69162077 84.26017567 -78.37679867 79.44382867 -83.15673828 74.67626953 C-83.99067612 73.84137497 -84.82461395 73.00648041 -85.68382263 72.14628601 C-87.4312983 70.39813547 -89.18001476 68.65122443 -90.92993164 66.90551758 C-93.59067231 64.25014869 -96.24601133 61.58946211 -98.90087891 58.92822266 C-100.61084473 57.21891747 -102.32112065 55.50992242 -104.03173828 53.80126953 C-105.20706871 52.62290276 -105.20706871 52.62290276 -106.40614319 51.42073059 C-111.12127988 46.72538056 -115.97082391 42.26163728 -121.02783203 37.93798828 C-122.24231354 36.8804729 -123.4559842 35.82202482 -124.66845703 34.76220703 C-132.37446258 28.0586772 -140.09422436 21.37233151 -148.02783203 14.93798828 C-148.64102295 14.35895752 -149.25421387 13.77992676 -149.88598633 13.18334961 C-156.38045287 7.42673725 -162.67169589 6.37479271 -171.09033203 5.37548828 C-172.51739056 5.18510195 -173.94414117 4.99239604 -175.37060547 4.79760742 C-179.36964824 4.26003358 -183.37275588 3.76108785 -187.37750244 3.26806641 C-191.11791094 2.80222735 -194.85520466 2.31326021 -198.59284973 1.82582092 C-254.25785808 -5.42369624 -310.0363175 -10.86366844 -366.09588623 -13.90057373 C-368.89540636 -14.05472013 -371.69428643 -14.21745738 -374.49316406 -14.3828125 C-440.24796471 -18.2055443 -507.28975974 -18.15118436 -573.02783203 -14.06201172 C-574.05853821 -13.99884766 -575.08924438 -13.93568359 -576.15118408 -13.87060547 C-623.96054116 -10.90630363 -671.55162628 -5.6786547 -718.74740601 2.55465698 C-721.03036699 2.9384144 -723.31663714 3.28073797 -725.60717773 3.6159668 C-727.04042423 3.84272228 -728.47361409 4.06983611 -729.90673828 4.29736328 C-731.76794312 4.57338379 -731.76794312 4.57338379 -733.66674805 4.85498047 C-739.05421835 6.59093008 -742.17901971 10.35762399 -745.31689453 15.01220703 C-747.2418509 17.80546285 -749.20949703 20.5512761 -751.23876953 23.27001953 C-785.19121084 69.05640375 -813.31140909 120.76863321 -833.85986328 173.92236328 C-834.59882606 175.83032069 -835.34760345 177.73453081 -836.10986328 179.63330078 C-843.86259529 198.97023081 -845.72544912 219.14087036 -847.85595703 239.71533203 C-847.94025908 240.5289193 -848.02456112 241.34250656 -848.11141777 242.18074799 C-850.75901247 267.97323551 -852.61301469 293.83753287 -854.59033203 319.68798828 C-855.26533056 328.50774373 -855.94373041 337.32721709 -856.62931633 346.14615631 C-856.89604803 349.59657511 -857.1573967 353.0473702 -857.41835022 356.49822998 C-858.29107108 367.86343186 -859.3100186 379.204048 -860.53930664 390.53662109 C-860.65790071 391.65103954 -860.77649477 392.76545799 -860.89868259 393.9136467 C-864.24502206 423.77541256 -880.22482193 451.7854685 -900.02783203 473.93798828 C-901.27843421 475.39580525 -902.52852267 476.85406326 -903.77783203 478.31298828 C-906.49261809 481.40267337 -909.36102196 484.29435987 -912.29736328 487.17236328 C-914.03385475 488.94413336 -915.62066829 490.78829201 -917.21533203 492.68798828 C-920.51806956 496.51566423 -924.15453629 499.85333307 -927.91015625 503.23120117 C-932.68871574 507.56154146 -937.27706413 512.0696621 -941.84033203 516.62548828 C-942.54528809 517.32601318 -943.25024414 518.02653809 -943.9765625 518.74829102 C-948.53085892 523.31493698 -952.8342738 528.03950946 -957.02783203 532.93798828 C-957.84767578 533.87642578 -958.66751953 534.81486328 -959.51220703 535.78173828 C-975.53754961 554.57007096 -988.35459839 575.8124573 -997.02783203 598.93798828 C-997.33172852 599.74397461 -997.635625 600.54996094 -997.94873047 601.38037109 C-1007.46265285 627.07913049 -1011.39116648 654.14268662 -1015.52105713 681.10232544 C-1016.91933413 690.22714817 -1018.35629832 699.34595079 -1019.78955078 708.46533203 C-1019.93063766 709.36451292 -1020.07172455 710.26369381 -1020.21708679 711.1901226 C-1026.64496223 752.13848464 -1034.32476608 792.85009847 -1042.35192871 833.5123291 C-1042.99739657 836.7837332 -1043.64024423 840.0556429 -1044.28271484 843.32763672 C-1058.63704875 916.25905706 -1075.5511814 988.64058966 -1093.07093334 1060.86626244 C-1094.53848323 1066.91665726 -1096.00222588 1072.96795898 -1097.46289062 1079.02001953 C-1109.80747172 1130.16174144 -1122.4318906 1181.23365322 -1135.42236328 1232.21533203 C-1158.57336553 1323.02885415 -1158.57336553 1323.02885415 -1179.40068054 1414.39491272 C-1195.2006379 1487.99362061 -1218.81512116 1559.75053515 -1241.67113495 1631.39423752 C-1242.37844799 1633.61154829 -1243.0853867 1635.82897815 -1243.79229736 1638.04641724 C-1256.99060891 1679.43168658 -1270.52958077 1720.70314894 -1284.40014648 1761.86791992 C-1285.77790934 1765.95716633 -1287.15285478 1770.04734207 -1288.52514648 1774.13842773 C-1298.1407926 1802.80303504 -1308.04449149 1831.35312205 -1318.20626831 1859.8286438 C-1320.20781254 1865.43892051 -1322.19461826 1871.05432923 -1324.17893982 1876.67071533 C-1345.30228485 1936.44045008 -1367.42109991 1995.92337303 -1393.02783203 2053.93798828 C-1393.2996228 2054.55546936 -1393.57141357 2055.17295044 -1393.85144043 2055.80914307 C-1399.42854917 2068.46735203 -1405.23163508 2080.77618602 -1412.36328125 2092.63818359 C-1415.42743668 2097.759039 -1417.82628615 2102.90301088 -1419.98095703 2108.47705078 C-1422.02771828 2113.28846714 -1424.63445555 2117.00907062 -1429.02783203 2119.93798828 C-1433.02832106 2119.5547282 -1436.49274781 2118.03189112 -1440.16845703 2116.46923828 C-1441.32087891 2115.98068359 -1442.47330078 2115.49212891 -1443.66064453 2114.98876953 C-1444.85431641 2114.47701172 -1446.04798828 2113.96525391 -1447.27783203 2113.43798828 C-1449.09154297 2112.67035156 -1449.09154297 2112.67035156 -1450.94189453 2111.88720703 C-1459.88843012 2108.07739019 -1459.88843012 2108.07739019 -1461.02783203 2106.93798828 C-1461.673584 2097.36566504 -1459.62351441 2088.27224185 -1457.77783203 2078.93798828 C-1457.42682581 2077.1222486 -1457.07633644 2075.30640894 -1456.72631836 2073.49047852 C-1454.56860494 2062.37844124 -1452.27473504 2051.29712075 -1449.93017578 2040.22314453 C-1449.66477997 2038.96351898 -1449.39938416 2037.70389343 -1449.12594604 2036.40609741 C-1447.81874362 2030.20263876 -1446.49932201 2024.00239329 -1445.15380859 2017.80712891 C-1441.75105758 2001.91069916 -1439.46232916 1986.12865594 -1438.02783203 1969.93798828 C-1437.93504974 1968.89587189 -1437.84226746 1967.85375549 -1437.74667358 1966.78005981 C-1437.11247225 1959.50371612 -1436.55835249 1952.22253476 -1436.02783203 1944.93798828 C-1435.90276779 1943.24423569 -1435.90276779 1943.24423569 -1435.775177 1941.51626587 C-1432.79101444 1901.01631363 -1430.51722512 1860.48126181 -1429.0559082 1819.89746094 C-1428.97251605 1817.5982108 -1428.88900622 1815.29896503 -1428.80532646 1812.99972534 C-1428.75069501 1811.49672722 -1428.69641872 1809.99371614 -1428.64250374 1808.49069214 C-1428.31673082 1799.5265447 -1427.81881352 1790.60485438 -1427.02001953 1781.66845703 C-1424.96711091 1756.92449105 -1430.77406913 1739.1410547 -1441.60839844 1716.95605469 C-1443.99763961 1712.05033184 -1446.21169086 1707.0799246 -1448.38330078 1702.07470703 C-1465.19532998 1663.43444946 -1483.73298993 1625.31721823 -1505.02783203 1588.93798828 C-1505.54571289 1588.05111328 -1506.06359375 1587.16423828 -1506.59716797 1586.25048828 C-1514.07867644 1573.51758085 -1522.09170089 1561.16219267 -1530.27783203 1548.87548828 C-1530.73769501 1548.18465149 -1531.19755798 1547.4938147 -1531.6713562 1546.78204346 C-1540.59888416 1533.39304519 -1549.82923983 1520.27359994 -1559.73925781 1507.58984375 C-1561.05835519 1505.89885989 -1562.36954271 1504.20194449 -1563.68017578 1502.50439453 C-1572.57135711 1491.03371252 -1581.99364275 1480.07437802 -1591.80126953 1469.37939453 C-1593.7191641 1467.27643996 -1595.60159248 1465.15129672 -1597.46533203 1463.00048828 C-1605.04657597 1454.30850395 -1612.90622083 1445.9847694 -1621.10717773 1437.88012695 C-1624.12357859 1434.88709935 -1627.03667372 1431.87738128 -1629.77783203 1428.62548828 C-1632.18206821 1425.77599309 -1634.76436228 1423.32884185 -1637.56689453 1420.87158203 C-1643.14682156 1415.89320282 -1648.40513074 1410.63741036 -1653.65283203 1405.31298828 C-1659.05492857 1399.83260048 -1664.45304025 1394.4522718 -1670.29882812 1389.44433594 C-1672.6598552 1387.38735528 -1674.84406143 1385.18077971 -1677.02783203 1382.93798828 C-1679.94409806 1379.98615803 -1682.87389038 1377.13409969 -1686.02783203 1374.43798828 C-1689.18177368 1371.74187687 -1692.111566 1368.88981853 -1695.02783203 1365.93798828 C-1697.86273202 1363.06872587 -1700.69903862 1360.29312117 -1703.77783203 1357.68798828 C-1708.35909395 1353.77715494 -1712.54271136 1349.47655241 -1716.75341797 1345.17529297 C-1719.58276537 1342.30398149 -1722.44375924 1339.54832166 -1725.51977539 1336.94165039 C-1731.17516768 1332.01669191 -1736.42533114 1326.68472154 -1741.71923828 1321.37939453 C-1742.83432214 1320.2649861 -1743.94955426 1319.15072599 -1745.06492615 1318.03660583 C-1747.39036965 1315.71262807 -1749.71401714 1313.38687364 -1752.03637695 1311.05981445 C-1754.99371106 1308.09678377 -1757.95551331 1305.13826658 -1760.91868687 1302.181077 C-1763.21893801 1299.88446196 -1765.51677434 1297.58544262 -1767.81391716 1295.28571892 C-1768.904285 1294.19469022 -1769.99537883 1293.10438651 -1771.08725166 1292.01486397 C-1776.43650061 1286.67460834 -1781.72884015 1281.32568537 -1786.62522888 1275.56077576 C-1788.79807446 1273.04683117 -1791.15039424 1270.75948636 -1793.52783203 1268.43798828 C-1797.25312296 1264.76268852 -1800.81926082 1261.01060878 -1804.21923828 1257.03173828 C-1806.44292221 1254.45745192 -1808.73360257 1251.9495658 -1811.02783203 1249.43798828 C-1814.48674289 1245.64518557 -1817.90050339 1241.82135157 -1821.26611328 1237.94580078 C-1823.24490094 1235.69059711 -1825.26053589 1233.47129926 -1827.27783203 1231.25048828 C-1835.03529004 1222.6486811 -1842.41320502 1213.728706 -1849.71923828 1204.74267578 C-1851.80733621 1202.20586645 -1853.92684943 1199.70161108 -1856.06225586 1197.20483398 C-1861.46236658 1190.88575541 -1866.59281042 1184.39597037 -1871.62207031 1177.77783203 C-1874.31716343 1174.25052711 -1877.05005604 1170.7525353 -1879.77783203 1167.25048828 C-1880.66583496 1166.10833862 -1880.66583496 1166.10833862 -1881.57177734 1164.94311523 C-1884.56495564 1161.09433974 -1887.56510226 1157.25133662 -1890.57861328 1153.41845703 C-1896.88719211 1145.37900459 -1903.02606756 1137.25542201 -1908.96435547 1128.93847656 C-1915.76871381 1119.44271809 -1922.90835429 1110.19840354 -1930.02783203 1100.93798828 C-1927.70809408 1120.41867148 -1924.98437959 1139.71003317 -1921.02783203 1158.93798828 C-1920.78194336 1160.1382666 -1920.53605469 1161.33854492 -1920.28271484 1162.57519531 C-1915.95682171 1183.37150589 -1910.36235986 1203.67268524 -1904.02783203 1223.93798828 C-1903.65400391 1225.13407715 -1903.28017578 1226.33016602 -1902.89501953 1227.5625 C-1891.35580193 1264.05320026 -1876.34178681 1299.35402995 -1860.02783203 1333.93798828 C-1859.49367676 1335.07478027 -1858.95952148 1336.21157227 -1858.40917969 1337.3828125 C-1839.50965893 1377.51270129 -1816.71961969 1416.43670962 -1787.52392578 1450.04345703 C-1785.20621517 1452.73113084 -1782.98703011 1455.47356333 -1780.77783203 1458.25048828 C-1771.90754159 1469.13243387 -1761.99174515 1479.21765074 -1751.88818359 1488.953125 C-1750.56530182 1490.24546586 -1749.29113084 1491.58734503 -1748.02783203 1492.93798828 C-1748.02783203 1493.59798828 -1748.02783203 1494.25798828 -1748.02783203 1494.93798828 C-1747.45162109 1495.18419922 -1746.87541016 1495.43041016 -1746.28173828 1495.68408203 C-1743.66541673 1497.13960927 -1742.01891367 1498.82407559 -1739.96533203 1501.00048828 C-1735.87979381 1505.17918209 -1731.57732762 1508.86185281 -1727.01611328 1512.50830078 C-1724.36609917 1514.66295277 -1721.79623425 1516.87703742 -1719.23291016 1519.13208008 C-1686.42312414 1547.86882994 -1646.25590925 1572.25399782 -1602.90600586 1580.02661133 C-1596.01674197 1581.35778578 -1591.1241641 1583.25963891 -1586.46923828 1588.78955078 C-1583.36117689 1595.06092798 -1582.7478924 1601.46956 -1584.68798828 1608.24267578 C-1586.89605491 1613.30880267 -1590.20113886 1616.32866227 -1595.02783203 1618.93798828 C-1616.91784321 1626.23465867 -1649.65414196 1610.06793778 -1668.72827148 1600.71118164 C-1697.08055868 1586.4608058 -1723.00358524 1569.19661999 -1747.03955078 1548.48876953 C-1749.88782204 1546.05750008 -1752.78935287 1543.71217933 -1755.71533203 1541.37548828 C-1760.35335225 1537.60709686 -1764.53786771 1533.5298297 -1768.71142578 1529.25830078 C-1770.67218368 1527.29423638 -1772.66021368 1525.47739827 -1774.77783203 1523.68798828 C-1783.17643513 1516.48674204 -1791.11756322 1508.42853324 -1798.26220703 1499.98486328 C-1800.13206322 1497.8171539 -1802.06920718 1495.71870179 -1804.01782227 1493.62182617 C-1808.58886382 1488.69922534 -1812.94809569 1483.69363917 -1817.09033203 1478.39892578 C-1819.06479158 1475.89104369 -1821.10434161 1473.44813308 -1823.15283203 1471.00048828 C-1833.40304448 1458.48815998 -1842.72610483 1445.20225628 -1851.76611328 1431.79833984 C-1852.96505286 1430.03055354 -1854.18126563 1428.27612277 -1855.40283203 1426.52392578 C-1873.71214993 1400.00906889 -1888.08936149 1370.79619543 -1901.39111328 1341.53076172 C-1902.99653526 1338.00668804 -1904.62038441 1334.49157641 -1906.24658203 1330.97705078 C-1914.68292622 1312.60994624 -1922.14080393 1293.92181306 -1929.25048828 1275.0057373 C-1929.9772894 1273.07243262 -1930.70751149 1271.14041497 -1931.43798828 1269.20849609 C-1953.50414623 1210.50263559 -1967.45678264 1148.50033462 -1972.02783203 1085.93798828 C-1972.08567871 1085.17115723 -1972.14352539 1084.40432617 -1972.203125 1083.61425781 C-1976.9882199 1017.71625947 -1976.9882199 1017.71625947 -1964.02783203 999.93798828 C-1961.88710283 998.07414253 -1959.59900435 996.53552334 -1957.21533203 995.00048828 C-1956.61140625 994.57703125 -1956.00748047 994.15357422 -1955.38525391 993.71728516 C-1952.23211562 991.66384203 -1950.62149525 990.82424564 -1946.86767578 991.54345703 C-1945.93052734 992.00365234 -1944.99337891 992.46384766 -1944.02783203 992.93798828 C-1943.25181641 993.27314453 -1942.47580078 993.60830078 -1941.67626953 993.95361328 C-1935.19982219 997.47003486 -1931.09999739 1002.02701997 -1926.48583984 1007.61938477 C-1914.42736332 1022.21476441 -1898.93747473 1031.04053761 -1882.02783203 1038.93798828 C-1881.38620117 1039.23946777 -1880.74457031 1039.54094727 -1880.08349609 1039.8515625 C-1845.82044031 1055.79980558 -1808.11391772 1064.12514668 -1771.59912109 1073.20773315 C-1761.07831535 1075.82500263 -1750.56485359 1078.47157424 -1740.05126953 1081.11767578 C-1739.02833549 1081.37496145 -1738.00540146 1081.63224712 -1736.95146942 1081.89732933 C-1714.97270929 1087.42771029 -1693.06129603 1093.17410361 -1671.24438477 1099.31530762 C-1669.06717484 1099.92693598 -1666.88857803 1100.53334679 -1664.70947266 1101.13818359 C-1634.95719974 1109.4098275 -1605.4484115 1118.80600461 -1577.02783203 1130.93798828 C-1576.17447266 1131.29924805 -1575.32111328 1131.66050781 -1574.44189453 1132.03271484 C-1547.00650438 1143.73121649 -1520.10966461 1157.89016849 -1497.02783203 1176.93798828 C-1496.50946777 1177.35628906 -1495.99110352 1177.77458984 -1495.45703125 1178.20556641 C-1475.56948227 1194.28817607 -1458.41249824 1212.77148843 -1444.28417969 1234.04785156 C-1443.20348554 1235.67372293 -1442.10736056 1237.28931874 -1441.00830078 1238.90283203 C-1415.92777335 1277.3948415 -1405.31052298 1324.08604688 -1399.02783203 1368.93798828 C-1398.81199463 1370.46601074 -1398.81199463 1370.46601074 -1398.59179688 1372.02490234 C-1394.1723125 1404.27460457 -1392.36558441 1437.02336194 -1390.46533203 1469.50048828 C-1390.40290314 1470.55668365 -1390.34047424 1471.61287903 -1390.27615356 1472.70108032 C-1389.47122399 1486.58945361 -1388.92830402 1500.46846409 -1388.58934402 1514.3745842 C-1388.39994735 1522.06289123 -1388.18795028 1529.75057739 -1387.96533203 1537.43798828 C-1387.92847668 1538.7213205 -1387.92847668 1538.7213205 -1387.89087677 1540.03057861 C-1386.81917848 1576.47927713 -1382.24854454 1612.03731817 -1376.02783203 1647.93798828 C-1375.69783203 1647.93798828 -1375.36783203 1647.93798828 -1375.02783203 1647.93798828 C-1372.24552285 1632.38814994 -1369.46376257 1616.83821351 -1366.68256247 1601.28817677 C-1365.0497643 1592.15900246 -1363.41673489 1583.02986963 -1361.78308105 1573.90084839 C-1359.89143278 1563.32999797 -1358.00033248 1552.75904963 -1356.10986328 1542.18798828 C-1355.94729585 1541.27895728 -1355.78472842 1540.36992629 -1355.61723471 1539.43334889 C-1350.72319865 1512.06568566 -1345.84842664 1484.69464758 -1340.98832893 1457.32093811 C-1324.71551048 1365.66951574 -1308.29583278 1274.04742707 -1229.96357441 865.61859417 C-1228.03402056 855.97684969 -1226.11661898 846.33271705 -1224.20279694 836.68783951 C-1207.05935375 750.30416088 -1189.11777049 664.08126209 -1142.76133156 446.36813545 C-1138.17529279 425.2644445 -1133.62130027 404.15392857 -1129.07511091 383.04162383 C-1128.33029539 379.58291631 -1127.5853075 376.12424593 -1126.84031117 372.66557735 C-1123.70425619 358.10633181 -1120.56825918 343.54707404 -1117.43591309 328.98703003 C-1104.12502618 267.11783264 -1104.12502618 267.11783264 -1098.80517578 243.34814453 C-1098.63299593 242.57425951 -1098.46081608 241.80037449 -1098.28341866 241.00303841 C-1092.27317536 214.03975914 -1083.88827457 188.28593238 -1070.99414062 163.78515625 C-1070.03446562 161.95066885 -1069.10157264 160.10446853 -1068.17236328 158.25439453 C-1056.15470039 134.6410153 -1039.3123134 113.88147031 -1021.34033203 94.56298828 C-1020.73487549 93.90903076 -1020.12941895 93.25507324 -1019.50561523 92.58129883 C-1015.79935063 88.63903038 -1011.93120676 85.00644384 -1007.82495117 81.48339844 C-1005.69246263 79.64959155 -1003.64575308 77.73241739 -1001.59033203 75.81298828 C-991.47759713 66.7068809 -980.39834371 58.74872523 -969.11254883 51.17285156 C-964.74065018 48.20698799 -960.58729175 45.04843437 -956.46704102 41.74291992 C-936.25107702 25.53814687 -914.00237514 15.61492794 -889.49414062 7.74072266 C-885.90160172 6.57142272 -882.3378221 5.3274135 -878.77783203 4.06298828 C-877.77018799 3.70672363 -877.77018799 3.70672363 -876.7421875 3.34326172 C-872.59442077 1.87007946 -868.45952189 0.36402997 -864.32861328 -1.15576172 C-827.10919917 -14.80613807 -788.84957932 -24.98754714 -749.97747803 -32.67456055 C-748.07218671 -33.05319716 -746.16839435 -33.43935187 -744.26464844 -33.82568359 C-672.6464905 -48.31300308 -599.58258644 -54.07842237 -526.65283203 -56.24951172 C-525.92685444 -56.27125961 -525.20087685 -56.29300751 -524.45289993 -56.31541443 C-417.90975791 -59.48824972 -311.00741003 -53.1955911 0 0 Z M-417.02783203 331.93798828 C-417.3984375 332.53933594 -417.76904297 333.14068359 -418.15087891 333.76025391 C-431.93868943 356.08739384 -446.16842278 378.01355825 -462.02783203 398.93798828 C-462.49946777 399.5627002 -462.97110352 400.18741211 -463.45703125 400.83105469 C-469.13842107 408.34382334 -474.98509041 415.71232824 -481.02783203 422.93798828 C-481.46820801 423.46473145 -481.90858398 423.99147461 -482.36230469 424.53417969 C-493.44930098 437.74987927 -505.23046719 450.21859996 -517.40283203 462.43798828 C-518.23492188 463.27475098 -519.06701172 464.11151367 -519.92431641 464.97363281 C-524.7983753 469.83500901 -529.79565423 474.46634985 -535.02783203 478.93798828 C-536.11089182 479.88733699 -537.19297177 480.83780507 -538.27392578 481.78955078 C-547.21717707 489.59054798 -556.50798038 496.85589114 -566.02783203 503.93798828 C-566.75518555 504.48100586 -567.48253906 505.02402344 -568.23193359 505.58349609 C-585.98842341 518.78905171 -604.6807111 530.22134628 -624.02783203 540.93798828 C-625.20249023 541.59130127 -625.20249023 541.59130127 -626.40087891 542.2578125 C-641.4218663 550.55636564 -657.07580848 557.61893326 -673.02783203 563.93798828 C-673.02783203 564.26798828 -673.02783203 564.59798828 -673.02783203 564.93798828 C-672.21252218 564.9374187 -672.21252218 564.9374187 -671.38074142 564.93683761 C-638.61559759 564.91408552 -605.85045597 564.89711893 -573.08530598 564.88692295 C-569.08462129 564.88567336 -565.08393662 564.88437893 -561.08325195 564.88305664 C-559.88936339 564.88266317 -559.88936339 564.88266317 -558.67135587 564.88226176 C-547.60082308 564.8785211 -536.530294 564.87239264 -525.45976361 564.86425389 C-506.32229739 564.85018824 -487.18483499 564.84097606 -468.04736328 564.84033203 C-466.91699175 564.84028038 -466.91699175 564.84028038 -465.76378444 564.84022769 C-415.51945643 564.83884688 -365.28563379 565.16078416 -315.04437637 565.74569988 C-292.20202089 566.01023375 -269.36171216 566.06335502 -246.5178833 566.00665283 C-241.51534581 565.99564915 -236.51280044 565.99170632 -231.51025391 565.98681641 C-222.01609711 565.97666902 -212.5219681 565.96010254 -203.02783203 565.93798828 C-205.33968468 563.62613564 -207.21558803 562.91012818 -210.24267578 561.68798828 C-211.31203369 561.24962646 -212.3813916 560.81126465 -213.4831543 560.35961914 C-214.63227295 559.89048096 -215.7813916 559.42134277 -216.96533203 558.93798828 C-250.30638827 545.0654948 -280.99763704 525.6195234 -309.02783203 502.93798828 C-310.05521484 502.11814453 -311.08259766 501.29830078 -312.14111328 500.45361328 C-329.36523998 486.39359088 -347.12319033 469.81182704 -359.02783203 450.93798828 C-359.44000977 450.31102051 -359.8521875 449.68405273 -360.27685547 449.03808594 C-381.11452877 417.32959953 -395.79708637 381.48087584 -409.87524414 346.40527344 C-410.20449387 345.58969467 -410.53374359 344.77411591 -410.87297058 343.93382263 C-411.49280687 342.39740416 -412.10843412 340.85927878 -412.7191925 339.31922913 C-414.3385479 335.29451505 -414.3385479 335.29451505 -417.02783203 331.93798828 Z " fill="#8AD674" transform="translate(2470.02783203125,721.06201171875)"/>
</svg>
